<svg width="70" height="70" viewBox="0 0 70 70" fill="none" xmlns="http://www.w3.org/2000/svg">
<g clip-path="url(#clip0_157_14738)">
<path d="M57.8704 38.5854L60.0455 35.2077C61.2678 33.1284 62.3036 31.0386 63.1063 28.7575C64.2612 25.4626 64.8413 21.7746 63.9608 18.371C63.2669 15.6916 61.5423 13.5088 59.103 12.2001C56.3529 10.7208 53.0539 10.4001 49.931 10.7001C46.9841 10.9949 44.172 11.7087 41.4064 12.7691C35.9011 14.8588 31.0588 18.0141 26.5893 21.8884C30.7998 17.0365 36.1238 13.3019 41.9036 10.6794C44.8815 9.42762 47.8956 8.51725 51.0963 8.16034C57.4043 7.40514 64.1421 9.27761 67.1614 15.1692C68.9896 18.7383 69.3107 22.6539 68.7307 26.6161C68.3112 29.4507 67.5499 32.1301 66.4726 34.7836C65.3799 37.463 64.0592 39.9562 62.4382 42.408L65.7424 44.3322L51.3397 50.4927L55.2187 35.606L57.8652 38.5854H57.8704Z" fill="#262A71"/>
<path d="M48.2116 53.9481L53.9084 51.9204C45.6117 59.1206 29.3704 66.626 19.1989 61.0759C14.4653 58.4948 12.3368 53.4308 13.0618 48.2117C13.1551 50.2238 13.4606 52.0652 14.31 53.8705C15.5426 56.493 17.7436 58.4637 20.4833 59.4517C24.6835 60.9672 29.4637 60.4034 33.6327 58.9034C36.7712 57.7758 39.6663 56.2292 42.3956 54.305C44.954 52.5722 47.1654 50.5911 49.4752 48.4134L48.2116 53.9532V53.9481Z" fill="#262A71"/>
<path d="M1 43.4424L1.42468 40.732L8.32826 34.5249L9.6489 33.1645C10.8297 31.9438 11.0265 29.5333 9.73694 28.9954C8.66489 28.5454 7.48408 28.9954 6.86778 29.9678C6.52597 30.5161 6.40168 31.1162 6.35506 31.7886L2.46565 31.6696C2.71942 28.8402 4.81691 26.497 7.66017 26.0005C8.97563 25.7729 10.2652 25.7987 11.534 26.1815C13.2327 26.6936 14.398 28.1367 14.5016 29.9006C14.6621 32.5593 13.2069 34.3749 11.301 36.0715L7.95019 39.0612L6.48454 40.463H13.5487L13.0774 43.4476H1V43.4424Z" fill="#262A71"/>
<path d="M25.7244 39.5991L25.0926 43.4475H21.3119L21.949 39.6095H15.2059L15.1852 37.3077L23.9429 26.0884H27.9307L26.2009 36.6456L28.1534 36.656L27.6769 39.6043L25.7244 39.594V39.5991ZM22.4513 36.6508L23.3784 31.0592L19.1316 36.6456H22.4513V36.6508Z" fill="#262A71"/>
<path d="M45.1663 43.4475L41.1216 43.4372L48.1805 31.9696L49.9569 29.0781H41.6861L42.2143 26.0884H54.4678L54.1104 28.2867L45.1663 43.4475Z" fill="#262A71"/>
<path d="M31.0951 44.7823L28.1068 44.7771L37.3202 26.0938L40.3395 26.0989L31.0951 44.7823Z" fill="#262A71"/>
</g>
<defs>
<clipPath id="clip0_157_14738">
<rect width="68" height="55" fill="white" transform="translate(1 8)"/>
</clipPath>
</defs>
</svg>
