<svg width="70" height="70" viewBox="0 0 70 70" fill="none" xmlns="http://www.w3.org/2000/svg">
<g clip-path="url(#clip0_157_14736)">
<path d="M51.4082 10C53.684 10 55.8733 10.9084 57.4824 12.5176C59.0916 14.1267 60 16.3102 60 18.5918V42.0342C60 44.31 59.0916 46.5002 57.4824 48.1094C55.8733 49.7184 53.6896 50.6259 51.4082 50.626H24.9023L16.6729 58.8564C15.5522 59.9713 13.8738 60.3045 12.4141 59.7012C10.9543 59.0977 10 57.6723 10 56.0918V18.5918C10 16.316 10.9084 14.1267 12.5176 12.5176C14.1267 10.9084 16.3102 10 18.5918 10H51.4082ZM23.2988 26.2705C20.9713 26.2705 19.0801 28.161 19.0801 30.5C19.0801 32.8391 20.9713 34.7295 23.2988 34.7295C25.6264 34.7295 27.5176 32.8391 27.5176 30.5C27.5175 28.161 25.6264 26.2705 23.2988 26.2705ZM35.5752 26.2705C33.2476 26.2705 31.3565 28.161 31.3564 30.5C31.3564 32.8391 33.2476 34.7295 35.5752 34.7295C37.9026 34.7292 39.793 32.8389 39.793 30.5C39.7929 28.1611 37.9025 26.2708 35.5752 26.2705ZM47.8506 26.2705C45.523 26.2705 43.6319 28.161 43.6318 30.5C43.6318 32.8391 45.523 34.7295 47.8506 34.7295C50.1782 34.7295 52.0693 32.8391 52.0693 30.5C52.0693 28.161 50.1781 26.2705 47.8506 26.2705Z" fill="#F0BC29"/>
</g>
<defs>
<clipPath id="clip0_157_14736">
<rect width="50" height="50" fill="white" transform="translate(10 10)"/>
</clipPath>
</defs>
</svg>
