<svg width="90" height="90" viewBox="0 0 90 90" fill="none" xmlns="http://www.w3.org/2000/svg">
<circle cx="45" cy="45" r="45" fill="#262A71"/>
<path d="M25.916 44.2965C25.916 45.3348 26.2091 47.902 26.3556 48.9692C27.0883 54.1034 29.55 59.4396 33.8873 62.4394C36.9938 64.5738 40.5985 65.7276 44.2618 65.9583C49.83 66.3045 55.5447 64.4873 59.8527 60.7376C62.2559 58.632 64.2487 56.0071 65.6261 53.1227C69.0256 46.0559 68.967 37.1143 64.1901 30.8263C64.4538 30.3071 64.6297 29.7302 64.6297 29.1245C64.6297 27.0189 62.8713 25.2882 60.7319 25.2882C60.0579 25.2882 59.4131 25.4901 58.8563 25.7786C55.5447 23.4134 51.4711 22 47.0459 22C44.9358 22 42.9137 22.3173 41.0088 22.8942C40.5106 23.0095 40.071 23.1826 39.6314 23.3845C38.4298 23.846 37.3162 24.4229 36.2318 25.0863C34.1511 23.9614 31.8066 23.1826 29.7258 22.6634C26.6194 21.8846 23.3957 23.2403 21.8424 26.0093C20.553 28.3457 20.7581 31.2013 22.37 33.3357C23.4836 34.8356 24.7731 36.4509 25.7109 37.4316C23.7181 37.8065 22.0769 37.5469 21.3735 38.7296C19.6445 41.4986 24.3921 43.1715 25.9453 44.2965H25.916ZM37.9609 37.1431C38.7522 35.6432 40.071 34.7779 40.9209 35.2106C41.7707 35.6432 41.8294 37.2008 41.0381 38.7007C40.2468 40.2006 38.928 41.0659 38.0781 40.6333C37.2283 40.2006 37.1697 38.643 37.9609 37.1431ZM36.437 51.1613C42.8844 51.1613 43.8222 45.4214 43.8808 45.1906C43.998 44.4407 44.7014 43.9503 45.434 44.0657C46.196 44.1811 46.6942 44.8445 46.6063 45.5944C46.196 48.45 43.5291 53.8727 36.4663 53.8727C35.7043 53.8727 35.0889 53.267 35.0889 52.517C35.0889 51.7671 35.7043 51.1613 36.4663 51.1613H36.437Z" fill="#F0BC29"/>
</svg>
