<svg width="90" height="90" viewBox="0 0 90 90" fill="none" xmlns="http://www.w3.org/2000/svg">
<path d="M18.008 44.4312C18.008 45.9416 18.4257 49.6756 18.6346 51.2279C19.679 58.6959 23.1883 66.4576 29.3713 70.8209C33.7997 73.9256 38.9383 75.6038 44.1604 75.9394C52.0981 76.4429 60.2446 73.7997 66.3858 68.3456C69.8116 65.2828 72.6524 61.4649 74.6159 57.2694C79.4621 46.9905 79.3785 33.9844 72.5688 24.8382C72.9448 24.083 73.1955 23.2439 73.1955 22.3629C73.1955 19.3002 70.6889 16.7829 67.6392 16.7829C66.6783 16.7829 65.7592 17.0766 64.9654 17.4961C60.2446 14.0558 54.4376 12 48.1293 12C45.1213 12 42.2387 12.4615 39.5232 13.3006C38.8129 13.4684 38.1863 13.7202 37.5596 14.0138C35.8468 14.6851 34.2592 15.5242 32.7135 16.4892C29.7473 14.8529 26.4051 13.7202 23.439 12.965C19.0106 11.8322 14.4151 13.8041 12.2009 17.8317C10.3627 21.2301 10.6552 25.3836 12.9529 28.4883C14.5405 30.67 16.3786 33.0194 17.7155 34.4459C14.8747 34.9913 12.5352 34.6137 11.5325 36.3339C9.06766 40.3616 15.8355 42.795 18.0497 44.4312H18.008ZM35.1783 34.0264C36.3063 31.8447 38.1863 30.5861 39.3978 31.2154C40.6094 31.8447 40.6929 34.1103 39.5649 36.2919C38.437 38.4736 36.557 39.7323 35.3454 39.1029C34.1339 38.4736 34.0504 36.208 35.1783 34.0264ZM33.0059 54.4165C42.1969 54.4165 43.5338 46.0675 43.6173 45.7318C43.7844 44.641 44.7871 43.9277 45.8315 44.0956C46.9177 44.2634 47.6279 45.2284 47.5026 46.3192C46.9177 50.4727 43.116 58.3603 33.0477 58.3603C31.9615 58.3603 31.0842 57.4792 31.0842 56.3884C31.0842 55.2976 31.9615 54.4165 33.0477 54.4165H33.0059Z" fill="#F0BC29"/>
</svg>
