<svg width="100" height="118" viewBox="0 0 100 118" fill="none" xmlns="http://www.w3.org/2000/svg">
<path d="M-2.35239e-06 59.1078L-2.33306e-06 58.8921C0.126967 52.6419 1.21889 46.6535 3.11834 41.0966C8.94363 24.0355 22.3921 11.0163 38.9436 6.94872C39.6089 6.57894 40.2844 6.21945 40.9599 5.87535C40.9192 5.60829 40.8786 5.34123 40.8786 5.06389C40.8786 2.27002 43.2047 -4.96521e-06 46.0792 -4.7139e-06C47.6536 -4.57627e-06 49.0452 0.698459 50 1.77185C50.9548 0.698459 52.3464 -4.16601e-06 53.9259 -4.02793e-06C56.7953 -3.77707e-06 59.1214 2.27002 59.1214 5.06389C59.1214 5.34123 59.0858 5.60829 59.0401 5.87535C59.7207 6.21945 60.3911 6.57895 61.0564 6.94872C77.613 11.0214 91.0564 24.0355 96.8817 41.0966C98.7811 46.6536 99.873 52.6419 100 58.8922L100 59.1078C99.873 65.3581 98.7811 71.3464 96.8817 76.9085C91.0564 93.9696 77.613 106.984 61.0564 111.056C60.3911 111.421 59.7207 111.781 59.0401 112.13C59.0858 112.397 59.1214 112.664 59.1214 112.941C59.1214 115.735 56.7953 118 53.9258 118C52.3464 118 50.9548 117.307 50 116.228C49.0452 117.307 47.6536 118 46.0792 118C43.2047 118 40.8786 115.735 40.8786 112.941C40.8786 112.664 40.9192 112.397 40.9599 112.13C40.2844 111.781 39.6089 111.421 38.9436 111.056C22.3921 106.984 8.94363 93.9696 3.11834 76.9085C1.21889 71.3464 0.126965 65.3581 -2.35239e-06 59.1078Z" fill="#F0BC29"/>
</svg>
