<svg width="82" height="82" viewBox="0 0 82 82" fill="none" xmlns="http://www.w3.org/2000/svg">
<path d="M40.5901 6.4375C48.4132 6.4375 55.9154 9.53265 61.4524 15.0361L62.632 16.209V16.2891C67.4262 21.6509 70.1036 28.6006 70.1037 35.8311C70.1037 47.372 62.8416 57.058 57.1438 63.043L57.1428 63.0439C54.1266 66.2101 51.1427 68.7653 48.9211 70.5283C47.8047 71.4149 46.8588 72.1179 46.175 72.6074L46.1643 72.6143L46.1545 72.6221C45.8572 72.8321 45.5662 73.0376 45.3586 73.1797L45.3332 73.1973L45.3069 73.2148C45.2834 73.2304 45.2654 73.2422 45.2492 73.2529C45.2412 73.2583 45.234 73.2621 45.2287 73.2656L45.2141 73.2773L45.1516 73.3203L45.0735 73.375L44.049 74.0781H43.7834C41.7497 74.9628 39.4304 74.9629 37.3967 74.0781H37.1311L36.1076 73.375L36.0285 73.3203H36.0276C36.0122 73.3099 35.9986 73.3006 35.9875 73.293C35.9658 73.2781 35.9391 73.2596 35.9279 73.252C35.899 73.232 35.8859 73.2226 35.8742 73.2148L35.8215 73.1797C35.6393 73.0549 35.3472 72.8551 34.9856 72.5928C34.3292 72.1166 33.3849 71.4215 32.259 70.5273V70.5264C30.168 68.8714 27.415 66.523 24.5998 63.6279L24.0354 63.041C18.3398 57.0522 11.0764 47.3723 11.0764 35.8311C11.0765 28.0273 14.1945 20.5511 19.7248 15.04L19.7287 15.0361C25.2656 9.53275 32.7671 6.43756 40.5901 6.4375ZM40.5901 31.624C38.2253 31.6241 36.3471 33.5237 36.3469 35.8252C36.3469 38.1249 38.2293 40.0272 40.5901 40.0273C42.955 40.0273 44.8332 38.1269 44.8332 35.8252C44.8331 33.5237 42.9549 31.624 40.5901 31.624Z" fill="#F0BC29" stroke="white" stroke-width="8"/>
</svg>
