<svg width="70" height="70" viewBox="0 0 70 70" fill="none" xmlns="http://www.w3.org/2000/svg">
<path d="M50.5571 15.4114C46.4295 11.3087 40.8352 9 35 9C29.1648 9 23.5705 11.3087 19.4429 15.4114C15.3205 19.5193 13 25.0884 13 30.8967C13 39.4556 18.4476 46.9591 23.2248 51.9821C25.6814 54.5665 28.1276 56.662 29.961 58.1128C30.8776 58.8407 31.6476 59.4075 32.1924 59.8027C32.4648 60.0003 32.6848 60.1511 32.8367 60.2551C32.9152 60.3071 32.9729 60.3487 33.02 60.3799L33.0881 60.4267C33.0881 60.4267 33.0881 60.4267 33.0933 60.4267C34.2457 61.1911 35.7543 61.1911 36.9067 60.4267C36.9067 60.4267 36.9067 60.4267 36.9119 60.4267L36.98 60.3799C37.0219 60.3487 37.0848 60.3071 37.1633 60.2551C37.3152 60.1511 37.5352 59.9951 37.8076 59.8027C38.3524 59.4127 39.1224 58.8407 40.039 58.1128C41.8671 56.662 44.3133 54.5665 46.7752 51.9821C51.5524 46.9643 57 39.4556 57 30.8967C57 25.0884 54.6795 19.5193 50.5571 15.4166V15.4114ZM35 37.9633C31.0767 37.9633 27.8919 34.7966 27.8919 30.8915C27.8919 26.9864 31.0714 23.8196 35 23.8196C38.9286 23.8196 42.1081 26.9864 42.1081 30.8915C42.1081 34.7966 38.9286 37.9633 35 37.9633Z" fill="#F0BC29"/>
</svg>
