<svg width="108" height="60" viewBox="0 0 108 60" fill="none" xmlns="http://www.w3.org/2000/svg">
<path d="M5.49001 50.3V47.15C3.97001 46.91 2.86501 46.325 2.17501 45.395C1.48501 44.455 1.10001 43.08 1.02001 41.27C1.01001 40.95 1.00501 40.6 1.00501 40.22C1.00501 39.83 1.01501 39.445 1.03501 39.065C1.05501 38.675 1.09001 38.32 1.14001 38H5.37001C5.33001 38.73 5.30501 39.45 5.29501 40.16C5.28501 40.87 5.31001 41.52 5.37001 42.11C5.42001 42.6 5.62001 42.98 5.97001 43.25C6.33001 43.51 6.83001 43.64 7.47001 43.64C8.08001 43.64 8.55001 43.51 8.88001 43.25C9.22001 42.98 9.42001 42.6 9.48001 42.11C9.52001 41.77 9.54501 41.435 9.55501 41.105C9.57501 40.765 9.57501 40.43 9.55501 40.1C9.54501 39.76 9.52001 39.42 9.48001 39.08C9.44001 38.66 9.27501 38.28 8.98501 37.94C8.69501 37.59 8.31001 37.36 7.83001 37.25L5.16001 36.62C4.12001 36.37 3.29501 35.99 2.68501 35.48C2.07501 34.97 1.63001 34.34 1.35001 33.59C1.08001 32.83 0.93001 31.95 0.90001 30.95C0.89001 30.51 0.88501 30.12 0.88501 29.78C0.88501 29.43 0.89001 29.07 0.90001 28.7C0.98001 26.9 1.37001 25.535 2.07001 24.605C2.78001 23.665 3.92001 23.075 5.49001 22.835V19.4H9.39001V22.835C10.9 23.075 12.01 23.665 12.72 24.605C13.43 25.535 13.82 26.9 13.89 28.7C13.91 29.13 13.91 29.655 13.89 30.275C13.88 30.895 13.86 31.47 13.83 32H9.51001C9.54001 31.31 9.56001 30.62 9.57001 29.93C9.58001 29.24 9.57001 28.55 9.54001 27.86C9.53001 27.38 9.34001 27.01 8.97001 26.75C8.61001 26.49 8.11001 26.36 7.47001 26.36C6.85001 26.36 6.36501 26.49 6.01501 26.75C5.66501 27.01 5.46001 27.38 5.40001 27.86C5.34001 28.37 5.31001 28.885 5.31001 29.405C5.31001 29.925 5.34001 30.44 5.40001 30.95C5.45001 31.35 5.59001 31.72 5.82001 32.06C6.05001 32.39 6.42001 32.61 6.93001 32.72L9.27001 33.23C10.4 33.48 11.3 33.87 11.97 34.4C12.65 34.92 13.15 35.575 13.47 36.365C13.79 37.145 13.97 38.05 14.01 39.08C14.02 39.31 14.025 39.55 14.025 39.8C14.025 40.05 14.02 40.3 14.01 40.55C14 40.8 13.99 41.04 13.98 41.27C13.91 43.09 13.515 44.47 12.795 45.41C12.085 46.35 10.95 46.94 9.39001 47.18V50.3H5.49001Z" fill="#262A71"/>
<path d="M30.825 50.5C27.4583 50.5 24.85 49.6333 23 47.9C21.15 46.15 20.1833 43.6667 20.1 40.45C20.05 38.1333 20.0167 35.8 20 33.45C19.9833 31.0833 19.9833 28.7333 20 26.4C20.0167 24.05 20.05 21.75 20.1 19.5C20.1833 16.2667 21.15 13.7917 23 12.075C24.85 10.3583 27.4583 9.5 30.825 9.5C34.175 9.5 36.7667 10.3583 38.6 12.075C40.45 13.7917 41.425 16.2667 41.525 19.5C41.5917 21.3 41.6417 23.0917 41.675 24.875C41.7083 26.6417 41.725 28.4 41.725 30.15C41.725 31.9 41.7083 33.6333 41.675 35.35C41.6417 37.0667 41.5917 38.7667 41.525 40.45C41.4083 43.7167 40.425 46.2083 38.575 47.925C36.725 49.6417 34.1417 50.5 30.825 50.5ZM30.825 44.4C32.8083 44.4 33.85 43.5667 33.95 41.9C34.0833 39.2833 34.1667 36.6667 34.2 34.05C34.25 31.4167 34.25 28.775 34.2 26.125C34.1667 23.475 34.0833 20.7917 33.95 18.075C33.9 16.425 32.8583 15.6 30.825 15.6C28.7583 15.6 27.7 16.4333 27.65 18.1C27.5833 20.0833 27.525 22.0583 27.475 24.025C27.4417 25.9917 27.425 27.9583 27.425 29.925C27.425 31.8917 27.4417 33.8667 27.475 35.85C27.525 37.8333 27.5833 39.8333 27.65 41.85C27.7 43.55 28.7583 44.4 30.825 44.4Z" fill="#262A71"/>
<path d="M49.0815 29V12.2H51.7695V19.298H54.468V12.2H57.156V29H54.468V21.671H51.7695V29H49.0815ZM59.1679 14.363V12.2H62.0344V14.363H59.1679ZM59.2624 29V16.4H61.9504V29H59.2624ZM66.5512 29.189C65.6832 29.189 65.0217 28.937 64.5667 28.433C64.1187 27.922 63.8667 27.0855 63.8107 25.9235C63.7897 25.5035 63.7757 25.01 63.7687 24.443C63.7617 23.869 63.7582 23.2775 63.7582 22.6685C63.7582 22.0595 63.7617 21.475 63.7687 20.915C63.7827 20.355 63.7967 19.8755 63.8107 19.4765C63.8597 18.3005 64.1222 17.464 64.5982 16.967C65.0742 16.463 65.7392 16.211 66.5932 16.211C67.2442 16.211 67.7342 16.3405 68.0632 16.5995C68.3992 16.8515 68.7107 17.219 68.9977 17.702H69.3862V12.2H72.1267V29H69.3862V27.698H68.9767C68.6967 28.181 68.3817 28.552 68.0317 28.811C67.6887 29.063 67.1952 29.189 66.5512 29.189ZM67.6432 27.215C67.9862 27.215 68.3292 27.131 68.6722 26.963C69.0152 26.788 69.2532 26.5395 69.3862 26.2175V19.1825C69.2532 18.8605 69.0152 18.612 68.6722 18.437C68.3292 18.262 67.9862 18.1745 67.6432 18.1745C67.2792 18.1745 67.0097 18.2585 66.8347 18.4265C66.6597 18.5945 66.5617 18.85 66.5407 19.193C66.5057 19.942 66.4812 20.7225 66.4672 21.5345C66.4532 22.3465 66.4532 23.148 66.4672 23.939C66.4812 24.73 66.5057 25.4615 66.5407 26.1335C66.5617 26.5115 66.6562 26.788 66.8242 26.963C66.9922 27.131 67.2652 27.215 67.6432 27.215ZM76.3539 29.189C75.4859 29.189 74.8244 28.937 74.3694 28.433C73.9214 27.922 73.6694 27.0855 73.6134 25.9235C73.5924 25.5035 73.5784 25.01 73.5714 24.443C73.5644 23.869 73.5609 23.2775 73.5609 22.6685C73.5609 22.0595 73.5644 21.475 73.5714 20.915C73.5854 20.355 73.5994 19.8755 73.6134 19.4765C73.6624 18.3005 73.9249 17.464 74.4009 16.967C74.8769 16.463 75.5419 16.211 76.3959 16.211C77.0469 16.211 77.5369 16.3405 77.8659 16.5995C78.2019 16.8515 78.5134 17.219 78.8004 17.702H79.1889V12.2H81.9294V29H79.1889V27.698H78.7794C78.4994 28.181 78.1844 28.552 77.8344 28.811C77.4914 29.063 76.9979 29.189 76.3539 29.189ZM77.4459 27.215C77.7889 27.215 78.1319 27.131 78.4749 26.963C78.8179 26.788 79.0559 26.5395 79.1889 26.2175V19.1825C79.0559 18.8605 78.8179 18.612 78.4749 18.437C78.1319 18.262 77.7889 18.1745 77.4459 18.1745C77.0819 18.1745 76.8124 18.2585 76.6374 18.4265C76.4624 18.5945 76.3644 18.85 76.3434 19.193C76.3084 19.942 76.2839 20.7225 76.2699 21.5345C76.2559 22.3465 76.2559 23.148 76.2699 23.939C76.2839 24.73 76.3084 25.4615 76.3434 26.1335C76.3644 26.5115 76.4589 26.788 76.6269 26.963C76.7949 27.131 77.0679 27.215 77.4459 27.215ZM87.4377 29.189C86.0377 29.189 85.0332 28.9195 84.4242 28.3805C83.8222 27.8415 83.4862 26.97 83.4162 25.766C83.3952 25.388 83.3812 24.926 83.3742 24.38C83.3672 23.834 83.3637 23.2635 83.3637 22.6685C83.3637 22.0665 83.3672 21.4995 83.3742 20.9675C83.3882 20.4355 83.4022 20.005 83.4162 19.676C83.5002 18.43 83.8502 17.541 84.4662 17.009C85.0892 16.477 86.0657 16.211 87.3957 16.211C88.7397 16.211 89.7092 16.4735 90.3042 16.9985C90.9062 17.5165 91.2387 18.3705 91.3017 19.5605C91.3087 19.7285 91.3122 20.0155 91.3122 20.4215C91.3192 20.8275 91.3192 21.279 91.3122 21.776C91.3122 22.266 91.3017 22.728 91.2807 23.162H86.0937C86.0937 23.624 86.0972 24.0965 86.1042 24.5795C86.1182 25.0555 86.1322 25.549 86.1462 26.06C86.1602 26.459 86.2652 26.7425 86.4612 26.9105C86.6572 27.0785 86.9792 27.1625 87.4272 27.1625C87.8542 27.1625 88.1517 27.0785 88.3197 26.9105C88.4947 26.7425 88.5927 26.4555 88.6137 26.0495C88.6277 25.8395 88.6347 25.5875 88.6347 25.2935C88.6417 24.9995 88.6347 24.653 88.6137 24.254H91.2807C91.2947 24.387 91.3052 24.6145 91.3122 24.9365C91.3192 25.2585 91.3157 25.535 91.3017 25.766C91.2387 26.984 90.9097 27.859 90.3147 28.391C89.7197 28.923 88.7607 29.189 87.4377 29.189ZM86.1042 21.272H88.6347C88.6417 20.985 88.6452 20.705 88.6452 20.432C88.6452 20.152 88.6417 19.9105 88.6347 19.7075C88.6277 19.4975 88.6207 19.354 88.6137 19.277C88.5927 18.899 88.4877 18.6295 88.2987 18.4685C88.1167 18.3075 87.8157 18.227 87.3957 18.227C86.9407 18.227 86.6222 18.311 86.4402 18.479C86.2582 18.64 86.1602 18.906 86.1462 19.277C86.1392 19.62 86.1287 19.9595 86.1147 20.2955C86.1077 20.6245 86.1042 20.95 86.1042 21.272ZM93.0388 29V16.4H95.7268V17.702H96.2518C96.5388 17.219 96.8538 16.8515 97.1968 16.5995C97.5398 16.3405 98.0263 16.211 98.6563 16.211C99.5383 16.211 100.21 16.463 100.672 16.967C101.141 17.471 101.376 18.3075 101.376 19.4765V29H98.6878V19.256C98.6878 18.885 98.5898 18.612 98.3938 18.437C98.1978 18.262 97.9073 18.1745 97.5223 18.1745C97.1863 18.1745 96.8363 18.2655 96.4723 18.4475C96.1153 18.6295 95.8668 18.8745 95.7268 19.1825V29H93.0388ZM49.0815 50V33.2H56.064V35.573H51.7695V40.298H55.854V42.671H51.7695V50H49.0815ZM61.0441 50.189C59.6441 50.189 58.6396 49.9195 58.0306 49.3805C57.4286 48.8415 57.0926 47.97 57.0226 46.766C57.0016 46.388 56.9876 45.926 56.9806 45.38C56.9736 44.834 56.9701 44.2635 56.9701 43.6685C56.9701 43.0665 56.9736 42.4995 56.9806 41.9675C56.9946 41.4355 57.0086 41.005 57.0226 40.676C57.1066 39.43 57.4566 38.541 58.0726 38.009C58.6956 37.477 59.6721 37.211 61.0021 37.211C62.3461 37.211 63.3156 37.4735 63.9106 37.9985C64.5126 38.5165 64.8451 39.3705 64.9081 40.5605C64.9151 40.7285 64.9186 41.0155 64.9186 41.4215C64.9256 41.8275 64.9256 42.279 64.9186 42.776C64.9186 43.266 64.9081 43.728 64.8871 44.162H59.7001C59.7001 44.624 59.7036 45.0965 59.7106 45.5795C59.7246 46.0555 59.7386 46.549 59.7526 47.06C59.7666 47.459 59.8716 47.7425 60.0676 47.9105C60.2636 48.0785 60.5856 48.1625 61.0336 48.1625C61.4606 48.1625 61.7581 48.0785 61.9261 47.9105C62.1011 47.7425 62.1991 47.4555 62.2201 47.0495C62.2341 46.8395 62.2411 46.5875 62.2411 46.2935C62.2481 45.9995 62.2411 45.653 62.2201 45.254H64.8871C64.9011 45.387 64.9116 45.6145 64.9186 45.9365C64.9256 46.2585 64.9221 46.535 64.9081 46.766C64.8451 47.984 64.5161 48.859 63.9211 49.391C63.3261 49.923 62.3671 50.189 61.0441 50.189ZM59.7106 42.272H62.2411C62.2481 41.985 62.2516 41.705 62.2516 41.432C62.2516 41.152 62.2481 40.9105 62.2411 40.7075C62.2341 40.4975 62.2271 40.354 62.2201 40.277C62.1991 39.899 62.0941 39.6295 61.9051 39.4685C61.7231 39.3075 61.4221 39.227 61.0021 39.227C60.5471 39.227 60.2286 39.311 60.0466 39.479C59.8646 39.64 59.7666 39.906 59.7526 40.277C59.7456 40.62 59.7351 40.9595 59.7211 41.2955C59.7141 41.6245 59.7106 41.95 59.7106 42.272ZM70.4777 50.189C69.0777 50.189 68.0732 49.9195 67.4642 49.3805C66.8622 48.8415 66.5262 47.97 66.4562 46.766C66.4352 46.388 66.4212 45.926 66.4142 45.38C66.4072 44.834 66.4037 44.2635 66.4037 43.6685C66.4037 43.0665 66.4072 42.4995 66.4142 41.9675C66.4282 41.4355 66.4422 41.005 66.4562 40.676C66.5402 39.43 66.8902 38.541 67.5062 38.009C68.1292 37.477 69.1057 37.211 70.4357 37.211C71.7797 37.211 72.7492 37.4735 73.3442 37.9985C73.9462 38.5165 74.2787 39.3705 74.3417 40.5605C74.3487 40.7285 74.3522 41.0155 74.3522 41.4215C74.3592 41.8275 74.3592 42.279 74.3522 42.776C74.3522 43.266 74.3417 43.728 74.3207 44.162H69.1337C69.1337 44.624 69.1372 45.0965 69.1442 45.5795C69.1582 46.0555 69.1722 46.549 69.1862 47.06C69.2002 47.459 69.3052 47.7425 69.5012 47.9105C69.6972 48.0785 70.0192 48.1625 70.4672 48.1625C70.8942 48.1625 71.1917 48.0785 71.3597 47.9105C71.5347 47.7425 71.6327 47.4555 71.6537 47.0495C71.6677 46.8395 71.6747 46.5875 71.6747 46.2935C71.6817 45.9995 71.6747 45.653 71.6537 45.254H74.3207C74.3347 45.387 74.3452 45.6145 74.3522 45.9365C74.3592 46.2585 74.3557 46.535 74.3417 46.766C74.2787 47.984 73.9497 48.859 73.3547 49.391C72.7597 49.923 71.8007 50.189 70.4777 50.189ZM69.1442 42.272H71.6747C71.6817 41.985 71.6852 41.705 71.6852 41.432C71.6852 41.152 71.6817 40.9105 71.6747 40.7075C71.6677 40.4975 71.6607 40.354 71.6537 40.277C71.6327 39.899 71.5277 39.6295 71.3387 39.4685C71.1567 39.3075 70.8557 39.227 70.4357 39.227C69.9807 39.227 69.6622 39.311 69.4802 39.479C69.2982 39.64 69.2002 39.906 69.1862 40.277C69.1792 40.62 69.1687 40.9595 69.1547 41.2955C69.1477 41.6245 69.1442 41.95 69.1442 42.272ZM79.4808 50.189C78.1788 50.189 77.2513 49.923 76.6983 49.391C76.1453 48.859 75.8408 47.984 75.7848 46.766C75.7778 46.493 75.7778 46.2305 75.7848 45.9785C75.7918 45.7265 75.7988 45.5305 75.8058 45.3905H78.2103C78.1893 45.7965 78.1823 46.129 78.1893 46.388C78.1963 46.647 78.1998 46.871 78.1998 47.06C78.2208 47.466 78.3328 47.753 78.5358 47.921C78.7458 48.089 79.0608 48.173 79.4808 48.173C79.9638 48.173 80.3138 48.089 80.5308 47.921C80.7548 47.746 80.8703 47.4555 80.8773 47.0495C80.8773 46.8605 80.8773 46.7345 80.8773 46.6715C80.8773 46.6085 80.8773 46.549 80.8773 46.493C80.8773 46.43 80.8773 46.3145 80.8773 46.1465C80.8703 45.8525 80.8073 45.6145 80.6883 45.4325C80.5763 45.2505 80.3628 45.1175 80.0478 45.0335L78.6198 44.6555C77.9898 44.4805 77.4578 44.26 77.0238 43.994C76.5968 43.728 76.2748 43.392 76.0578 42.986C75.8408 42.573 75.7288 42.0585 75.7218 41.4425C75.7218 41.2955 75.7218 41.1625 75.7218 41.0435C75.7218 40.9245 75.7218 40.8055 75.7218 40.6865C75.7288 39.4405 76.0228 38.5515 76.6038 38.0195C77.1848 37.4805 78.1858 37.211 79.6068 37.211C80.9018 37.211 81.8258 37.47 82.3788 37.988C82.9318 38.506 83.2363 39.367 83.2923 40.571C83.2993 40.732 83.2993 40.9735 83.2923 41.2955C83.2923 41.6175 83.2818 41.845 83.2608 41.978H80.7828C80.7898 41.81 80.7933 41.6175 80.7933 41.4005C80.8003 41.1765 80.8003 40.963 80.7933 40.76C80.7933 40.55 80.7898 40.3855 80.7828 40.2665C80.7618 39.8885 80.6673 39.6225 80.4993 39.4685C80.3313 39.3075 80.0338 39.227 79.6068 39.227C79.1588 39.227 78.8473 39.3075 78.6723 39.4685C78.4973 39.6225 78.4028 39.8885 78.3888 40.2665C78.3818 40.3435 78.3748 40.4485 78.3678 40.5815C78.3608 40.7075 78.3608 40.914 78.3678 41.201C78.3678 41.558 78.4273 41.8415 78.5463 42.0515C78.6653 42.2545 78.9068 42.405 79.2708 42.503L80.5413 42.8075C81.4933 43.0315 82.2073 43.385 82.6833 43.868C83.1593 44.351 83.3973 45.065 83.3973 46.01C83.3973 46.15 83.3973 46.2865 83.3973 46.4195C83.3973 46.5525 83.3973 46.6925 83.3973 46.8395C83.3833 48.0295 83.0788 48.887 82.4838 49.412C81.8888 49.93 80.8878 50.189 79.4808 50.189Z" fill="#262A71"/>
</svg>
