<svg width="27" height="27" viewBox="0 0 27 27" fill="none" xmlns="http://www.w3.org/2000/svg">
<path d="M9.45844 3.75466C9.12515 2.95732 8.25609 2.53544 7.42922 2.75904L7.19719 2.82232C4.47187 3.56482 2.14312 6.20576 2.82234 9.42044C4.3875 16.8033 10.1967 22.6125 17.5795 24.1776C20.7984 24.8611 23.4352 22.5281 24.1777 19.8028L24.2409 19.5708C24.4687 18.7397 24.0427 17.8706 23.2495 17.5415L19.1447 15.8329C18.4486 15.5419 17.6428 15.7444 17.1619 16.3308L15.5334 18.322C12.5677 16.8497 10.1798 14.3859 8.80875 11.3611L10.6734 9.84232C11.2598 9.3656 11.4581 8.55982 11.1712 7.85951L9.45844 3.75466Z" fill="#262A71"/>
</svg>
