<svg width="70" height="70" viewBox="0 0 70 70" fill="none" xmlns="http://www.w3.org/2000/svg">
<path d="M45.2 43.1833C45.2 42.0552 44.7379 40.9596 43.8945 40.1427C43.049 39.3241 41.8891 38.8538 40.6671 38.8537H38.4V47.5116H40.6671C41.8892 47.5115 43.049 47.0413 43.8945 46.2225C44.7378 45.4058 45.1999 44.3113 45.2 43.1833ZM52 43.1833C51.9999 46.1302 50.7903 48.9433 48.6584 51.0081C46.5285 53.0707 43.6528 54.2188 40.6671 54.2189H38.4V63H31.6V54.2189H18V47.5116H31.6V38.8537H29.3329C26.3472 38.8535 23.4715 37.7055 21.3416 35.6428C19.2095 33.578 18 30.7639 18 27.8167C18.0001 24.8698 19.2097 22.0567 21.3416 19.992C23.4715 17.9293 26.3472 16.7812 29.3329 16.7811H31.6V8H38.4V16.7811H49.7329V23.4884H38.4V32.1463H40.6671C43.6528 32.1465 46.5285 33.2945 48.6584 35.3572C50.7906 37.422 52 40.2361 52 43.1833ZM24.8 27.8167C24.8 28.9448 25.2621 30.0404 26.1055 30.8573C26.951 31.6759 28.1109 32.1462 29.3329 32.1463H31.6V23.4884H29.3329C28.1108 23.4885 26.951 23.9587 26.1055 24.7775C25.2622 25.5942 24.8001 26.6887 24.8 27.8167Z" fill="#F0BC29"/>
</svg>
