<svg width="43" height="30" viewBox="0 0 43 30" fill="none" xmlns="http://www.w3.org/2000/svg">
<path d="M14.454 12.556C17.1793 14.308 18.542 16.6927 18.542 19.71C18.542 22.63 17.666 24.966 15.914 26.718C14.162 28.3727 11.972 29.2 9.344 29.2C6.716 29.2 4.47733 28.3727 2.628 26.718C0.876 25.0633 0 22.922 0 20.294C0 17.5687 0.876 14.9407 2.628 12.41L11.242 0H20.148L14.454 12.556ZM36.792 12.556C39.5173 14.308 40.88 16.6927 40.88 19.71C40.88 22.63 40.004 24.966 38.252 26.718C36.5 28.3727 34.31 29.2 31.682 29.2C29.054 29.2 26.8153 28.3727 24.966 26.718C23.214 25.0633 22.338 22.922 22.338 20.294C22.338 17.5687 23.214 14.9407 24.966 12.41L33.58 0H42.486L36.792 12.556Z" fill="#EEEEEE"/>
</svg>
