<svg width="43" height="30" viewBox="0 0 43 30" fill="none" xmlns="http://www.w3.org/2000/svg">
<path d="M5.548 16.644C2.92 15.0867 1.606 12.7993 1.606 9.782C1.606 6.66734 2.482 4.28267 4.234 2.628C5.986 0.876 8.176 0 10.804 0C13.432 0 15.622 0.827334 17.374 2.482C19.2233 4.13667 20.148 6.32667 20.148 9.05201C20.148 11.68 19.272 14.2593 17.52 16.79L8.906 29.2H0L5.548 16.644ZM27.74 16.644C25.112 15.0867 23.798 12.7993 23.798 9.782C23.798 6.66734 24.674 4.28267 26.426 2.628C28.178 0.876 30.368 0 32.996 0C35.624 0 37.814 0.827334 39.566 2.482C41.4153 4.13667 42.34 6.32667 42.34 9.05201C42.34 11.68 41.464 14.2593 39.712 16.79L31.098 29.2H22.192L27.74 16.644Z" fill="#EEEEEE"/>
</svg>
