<svg width="230" height="147" viewBox="0 0 230 147" fill="none" xmlns="http://www.w3.org/2000/svg">
<g clip-path="url(#clip0_455_3758)">
<path d="M192.962 252.431L180.398 246.706L174.732 197.635C169.076 195.443 166.127 189.461 168.595 183.834L171.772 176.588L169.115 149.252C168.87 146.742 168.108 145.787 165.77 144.959C160.575 143.116 156.664 138.515 154.511 133.306C148.849 119.609 151.45 101.321 156.916 86.8047C151.317 91.1547 146.248 94.4463 139.679 96.4212L136.628 106.952C135.621 110.428 133.507 113.57 129.451 113.978C123.729 114.553 117.762 114.494 112.028 113.552C109.458 113.128 106.703 111.136 106.768 108.396C106.873 104.046 107.909 99.7199 108.891 95.725L98.5431 90.1673C93.0264 104.406 89.0912 118.749 86.5579 133.774C82.6157 157.144 80.7729 180.271 80.8989 204.031C80.9735 218.453 82.1515 232.261 83.1429 246.722L70.2293 252.685C66.532 254.392 61.3232 260.184 63.5906 263.637C64.1807 264.537 65.8976 265.87 67.3158 265.868L119.28 265.73C121.622 265.723 122.707 264.262 122.884 261.984C124.494 241.292 124.249 221.294 126.736 200.027C132.441 221.086 135.779 241.112 140.452 261.3C140.47 264.286 142.682 265.787 145.518 265.792L196.438 265.868C197.973 265.868 199.657 264.392 200.196 263.4C202.101 259.886 197.189 254.359 192.964 252.431H192.962ZM101.053 122.368C100.367 123.14 98.6481 123.687 97.7943 123.495C97.0082 123.317 95.7112 122.28 95.338 121.406C94.342 119.071 94.7105 116.62 96.1451 114.612C96.8333 113.649 98.3588 112.964 99.4738 113.071C100.386 113.158 101.869 114.243 102.289 115.24C103.327 117.703 102.97 120.213 101.055 122.368H101.053ZM143.89 124.148C143.169 124.982 141.597 125.569 140.643 125.453C139.747 125.347 138.287 124.279 137.865 123.301C136.715 120.63 137.349 117.759 139.302 115.808C139.889 115.219 141.569 114.728 142.376 114.818C143.223 114.911 144.552 115.889 145.021 116.831C146.234 119.256 145.784 121.956 143.888 124.148H143.89Z" fill="#F2F2F2"/>
<path d="M78.5476 39.0817C80.7426 41.5634 83.7284 43.221 86.6792 44.9663C86.3877 62.4707 91.6828 79.0516 108.046 86.9537C123.645 94.4864 141.716 91.0504 154.1 79.2269C170.377 63.6831 175.316 38.7999 162.945 19.5621C164.406 16.093 163.757 12.5362 161.338 10.1729C159.167 8.05352 155.894 7.22945 152.686 9.03151C139.899 -1.51567 122.392 -2.53392 108.177 6.15673C103.411 3.54954 98.7811 1.23361 93.4859 0.20352C88.1372 -0.836043 82.7977 2.20924 80.1128 6.37933C77.1224 11.023 76.6698 17.0496 79.8516 21.5702L86.4483 30.9452C83.9594 31.2317 81.4378 31.1489 79.2871 32.2003C76.7631 33.434 76.7235 37.0145 78.5523 39.0841L78.5476 39.0817ZM114.347 27.5305C114.776 27.2321 116.194 27.0972 116.649 27.3008C117.195 27.5447 117.839 28.6009 117.888 29.3184C118.277 35.0111 113.729 39.5127 111.429 38.5229C108.818 37.4004 109.721 30.7392 114.347 27.5305ZM104.638 62.1842C104.755 61.1565 105.956 59.8067 107.176 59.8896C114.624 60.3869 120.463 55.4827 122.175 48.2247C122.486 46.9057 124.093 45.9514 125.182 46.0911C126.512 46.2592 127.664 47.5853 127.375 49.1743C125.567 59.1223 116.906 66.1127 106.742 65.0471C105.334 64.9003 104.529 63.1361 104.638 62.1842Z" fill="#F2F2F2"/>
<path d="M219.767 173.711C217.457 152.326 213.172 133.881 200.851 116.104C192.561 104.141 181.66 94.7708 168.604 88.7299C166.232 87.6312 164.347 88.7205 163.237 90.9772C157.907 101.799 157.387 117.944 162.141 129.368C162.71 130.734 163.762 132.245 164.994 133.05C176.545 140.599 182.631 152.285 184.613 165.842L180.828 170.403C178.224 173.538 178.996 178.644 175.213 184.933C173.991 186.963 174.448 189.274 176.517 190.581C179.253 192.31 182.759 191.128 184.641 188.367L188.133 183.252C191.597 193.406 184.182 202.637 187.389 206.459C189.806 209.34 193.916 208.471 196.337 205.67C199.542 207.832 202.734 207.645 205.848 205.571L209.844 200.716C213.165 199.397 215.74 197.361 217.175 193.892C219.802 187.536 220.527 180.711 219.769 173.706L219.767 173.711Z" fill="#F2F2F2"/>
<path d="M80.717 128.795C83.0986 115.86 86.6839 103.798 91.1579 91.098C74.7897 99.2298 57.4977 101.335 44.4745 88.1C44.8244 83.004 43.791 78.6303 41.2507 74.4247C32.1627 59.3783 40.5369 49.5249 35.5731 45.8592C34.2621 44.8907 32.0321 44.4858 30.3619 45.0801C21.5025 48.2462 21.1736 59.6885 23.8911 68.8717C28.7267 70.2167 32.4683 73.5604 33.4783 78.5948C33.9682 81.0386 32.8695 83.7476 32.0694 85.9735C34.2178 90.4136 33.9309 95.1781 30.5882 98.8485C32.2374 102.917 30.9917 107.006 27.782 109.751C23.7885 112.614 18.596 113.052 14.0193 111.212L13.2192 110.011C13.0466 109.753 14.0473 109.445 14.3505 109.396L22.4892 108.084C24.5746 107.748 26.2634 105.621 26.681 103.98C27.2081 101.917 26.3147 99.8312 25.3397 97.9463C27.5674 96.4331 29.1792 94.4842 29.1816 91.9552C29.1839 89.5374 28.3208 87.4228 26.2354 85.5497C29.0393 83.5013 30.4109 79.9019 28.5774 76.8306C27.5067 75.0356 25.3887 73.4301 23.3826 72.7694C16.9468 70.6524 7.45287 68.9995 3.87224 73.8682C0.356931 78.6469 4.25947 82.3623 2.25805 85.0879C-0.753414 89.1917 -0.790737 94.4605 2.35135 98.4578L2.29537 102.659C1.73786 107.006 3.87458 110.487 7.25226 112.77C13.4665 116.971 20.3478 118.965 28.0432 117.98C41.7243 131.208 63.0867 136.034 80.7123 128.792L80.717 128.795Z" fill="#F2F2F2"/>
</g>
<defs>
<clipPath id="clip0_455_3758">
<rect width="230" height="147" fill="white"/>
</clipPath>
</defs>
</svg>
