<svg width="185" height="240" viewBox="0 0 185 240" fill="none" xmlns="http://www.w3.org/2000/svg">
<g clip-path="url(#clip0_743_6452)">
<g clip-path="url(#clip1_743_6452)">
<path d="M94.8425 63.2971C94.8425 65.2239 95.3755 69.9874 95.6421 71.9677C96.9747 81.4946 101.452 91.3961 109.342 96.9624C114.992 100.923 121.549 103.064 128.212 103.492C138.34 104.134 148.735 100.762 156.571 93.8046C160.942 89.8975 164.567 85.027 167.073 79.6748C173.256 66.562 173.15 49.9702 164.461 38.3024C164.94 37.3391 165.26 36.2686 165.26 35.1447C165.26 31.2376 162.062 28.0263 158.17 28.0263C156.944 28.0263 155.772 28.4009 154.759 28.9361C148.735 24.5473 141.326 21.9248 133.276 21.9248C129.438 21.9248 125.76 22.5135 122.295 23.5839C121.389 23.798 120.589 24.1192 119.79 24.4938C117.604 25.3502 115.579 26.4206 113.606 27.6516C109.822 25.5643 105.557 24.1192 101.772 23.1558C96.1218 21.7107 90.2581 24.2262 87.4329 29.3643C85.0874 33.6996 85.4605 38.9982 88.3924 42.9588C90.418 45.742 92.7635 48.7392 94.4693 50.5589C90.8445 51.2547 87.8593 50.773 86.58 52.9674C83.4349 58.1055 92.0705 61.2098 94.8958 63.2971H94.8425ZM116.751 50.0237C118.191 47.2406 120.589 45.6349 122.135 46.4378C123.681 47.2406 123.788 50.1308 122.349 52.9139C120.909 55.697 118.511 57.3027 116.965 56.4999C115.419 55.697 115.312 52.8069 116.751 50.0237ZM113.979 76.0353C125.707 76.0353 127.413 65.3845 127.519 64.9563C127.733 63.5647 129.012 62.6549 130.345 62.869C131.73 63.083 132.637 64.314 132.477 65.7056C131.73 71.0043 126.88 81.0664 114.033 81.0664C112.647 81.0664 111.527 79.9424 111.527 78.5508C111.527 77.1593 112.647 76.0353 114.033 76.0353H113.979Z" fill="white"/>
<path d="M45.534 170.555C30.8748 155.301 28.1561 168.36 28.1561 168.36L46.7601 208.234L55.8755 226.967C56.7284 228.519 58.7007 229.215 60.4065 228.465L110.088 207.431C119.79 202.989 138.98 197.316 157.904 209.358L160.249 210.107C174.909 214.817 194.632 215.567 210.038 212.141L211.637 198.279L221.072 223.006C222.032 227.02 223.791 229.589 226.243 230.606C229.601 232.051 233.919 230.606 236.158 229.589L234.239 213.479H234.345L228.002 164.132C228.002 164.132 213.822 168.253 196.764 166.487C183.118 165.042 172.297 154.231 170.431 140.583C169.738 135.552 169.152 130.681 168.778 127.363C167.926 126.774 167.073 126.132 166.38 125.382C164.087 122.974 162.648 119.87 161.635 116.658C160.036 111.467 159.503 105.847 159.343 101.565C155.345 104.669 150.921 107.078 146.123 108.737C147.243 126.613 138.234 125.489 127.839 125.757C119.523 125.971 118.884 115.32 119.044 109.915C114.406 108.737 109.981 106.757 105.983 104.188C105.504 106.382 105.077 109.433 105.077 113.501C105.077 117.782 105.557 123.242 106.943 129.878C107.05 130.467 107.103 131.109 107.103 131.698C107.103 134.856 105.664 137.692 104.011 140.208C103.798 140.476 103.638 140.743 103.425 141.064C102.625 146.149 102.199 154.338 105.397 161.135C72.2938 156.425 56.6751 177.941 56.6751 177.941L58.1143 190.251L51.611 177.245L45.4274 170.501L45.534 170.555ZM153.586 119.388C155.718 119.388 157.477 121.529 157.477 124.205C157.477 126.881 155.718 129.022 153.586 129.022C151.454 129.022 149.695 126.881 149.695 124.205C149.695 121.529 151.454 119.388 153.586 119.388ZM121.762 141.546C124.694 143.098 128.852 144.597 133.543 144.597C138.82 144.597 144.844 142.831 151.347 136.729C152.307 135.819 153.853 135.873 154.759 136.836C155.665 137.799 155.612 139.352 154.652 140.262C147.403 147.059 139.993 149.414 133.596 149.414C127.839 149.414 123.042 147.594 119.577 145.828C116.165 144.062 114.139 142.295 114.033 142.188C113.02 141.332 112.913 139.78 113.82 138.763C114.672 137.746 116.218 137.639 117.231 138.549L117.444 138.709C117.444 138.709 117.924 139.084 118.351 139.405C119.15 139.994 120.323 140.743 121.762 141.493V141.546ZM113.713 121.368C115.845 121.368 117.604 123.509 117.604 126.185C117.604 128.861 115.845 131.002 113.713 131.002C111.581 131.002 109.822 128.861 109.822 126.185C109.822 123.509 111.581 121.368 113.713 121.368Z" fill="white"/>
<path d="M164.354 98.7286C164.354 101.779 164.514 106.382 165.367 110.878C166.22 115.374 167.766 119.656 170.058 122.011C188.235 110.289 209.398 121.368 212.276 123.027C213.023 127.577 215.315 132.715 221.445 134.214C219.526 141.439 217.767 147.969 216.541 152.357C215.688 155.515 217.554 158.727 220.699 159.583C223.844 160.439 227.042 158.566 227.895 155.408L232.426 138.602C234.132 141.385 234.718 143.901 242.448 139.833C247.672 137.104 261.638 100.816 244.953 91.8778L246.553 85.8298C246.979 84.1706 248.098 81.0129 249.324 79.8354C250.87 78.2832 256.148 76.6241 257.374 74.0015C259.346 69.8268 259.133 64.0464 259.293 61.638C259.346 60.2464 258.28 59.283 257.107 58.5337C257.107 58.5337 253.003 65.8127 251.617 68.2747C251.35 68.7564 250.764 69.0775 250.231 69.024C248.312 68.8099 243.994 67.9 241.808 63.8859C241.542 63.4042 241.595 62.869 241.808 62.4408C243.194 60.2464 247.405 53.4491 247.405 53.4491C247.405 53.4491 245.273 51.7364 242.661 53.3421C239.09 55.5365 232.426 60.7816 232.853 65.438C233.013 67.1507 233.386 68.5423 233.866 69.6662L234.132 70.255C234.985 71.6465 235.038 81.7622 233.279 90.0045C230.88 90.2186 228.215 90.6468 225.23 91.4496C211.584 85.4016 193.086 78.0156 172.19 86.9003C170.004 90.6468 167.392 94.1257 164.407 97.1764C164.407 97.6046 164.407 98.0863 164.407 98.6215L164.354 98.7286ZM223.577 149.735C225.39 150.217 226.403 152.09 225.923 153.856C225.443 155.676 223.577 156.693 221.818 156.211C220.006 155.729 218.993 153.856 219.473 152.09C219.953 150.27 221.818 149.253 223.577 149.735Z" fill="white"/>
<path d="M76.8782 27.3305C78.8505 20.9614 75.279 14.1641 68.9355 12.1838L63.1785 10.4176C56.9416 8.49079 50.3849 11.9697 48.4659 18.2318L67.9227 24.2797L65.1508 33.3249L47.1865 27.7586L46.1204 31.2911L73.2001 39.694L76.9848 27.384L76.8782 27.3305Z" fill="white"/>
<path d="M52.293 64.3568L50.4991 70.1863L63.8429 74.3259L65.6369 68.4964L52.293 64.3568Z" fill="white"/>
<path d="M49.6516 72.9071L47.8576 78.7367L61.2015 82.8763L62.9954 77.0467L49.6516 72.9071Z" fill="white"/>
<path d="M48.5567 82.724L47.2349 87.0194L57.0645 90.0688L58.3864 85.7734L48.5567 82.724Z" fill="white"/>
<path d="M14.4564 156.693C18.4011 158.352 22.7722 156.211 23.9982 152.197L30.2351 131.966C33.1136 132.18 37.005 131.966 40.5765 131.591C40.5765 131.591 61.9524 155.248 98.9471 138.923C99.3202 138.442 99.64 137.96 99.9599 137.532C101.346 135.445 102.252 133.304 102.199 131.805C102.199 131.537 102.199 131.27 102.145 131.002C100.706 124.044 100.173 118.264 100.173 113.608C100.173 109.594 100.546 106.436 101.079 103.974C88.0725 109.915 63.8714 118.746 57.1015 102.475C56.9949 97.3905 55.2358 91.182 47.613 89.3623C46.0671 89.1482 44.6811 88.9341 43.4018 88.6665L52.3039 59.6577L60.3532 62.1732C66.057 63.9394 72.0806 60.7281 73.8397 55.0548L73.9463 54.6801C75.7055 49.0068 72.5071 42.9588 66.8566 41.1926L45.2142 34.5024L43.8282 38.9447L58.8073 43.6011L57.7412 47.1335L42.7621 42.4771L29.702 84.9735C28.1028 84.7594 26.5036 84.9199 24.5313 85.6157C19.3073 87.5425 5.07446 115.053 16.9618 126.881L10.5117 147.808C9.39228 151.394 11.0448 155.355 14.4564 156.8V156.693ZM13.9766 147.38C14.6696 145.132 17.0684 143.847 19.3073 144.543C21.5461 145.239 22.8255 147.648 22.1325 149.895C21.4395 152.143 19.0407 153.428 16.8019 152.732C14.563 152.036 13.2836 149.628 13.9766 147.38Z" fill="white"/>
</g>
</g>
<defs>
<clipPath id="clip0_743_6452">
<rect width="185" height="240" fill="white"/>
</clipPath>
<clipPath id="clip1_743_6452">
<rect width="269.411" height="261.882" fill="white" transform="translate(0.703369 9.88232)"/>
</clipPath>
</defs>
</svg>
