<svg width="242" height="62" viewBox="0 0 242 62" fill="none" xmlns="http://www.w3.org/2000/svg">
<g clip-path="url(#clip0_792_2055)">
<path d="M105.222 17.7369C103.791 17.5787 102.36 17.4082 100.929 17.2378V44.7622C104.072 44.3849 107.228 44.0318 110.371 43.7153V38.1155C108.647 38.2129 106.934 38.3224 105.222 38.4198V17.7369Z" fill="#262A71"/>
<path d="M113.136 43.4353C116.279 43.131 119.41 42.8388 122.553 42.5832V37.4825C120.841 37.5555 119.141 37.6407 117.441 37.7259V33.5747C119.055 33.5382 120.658 33.5139 122.272 33.4895V28.3766C120.658 28.3523 119.055 28.3158 117.441 28.2792V24.262C119.141 24.3472 120.853 24.4324 122.553 24.5054V19.4047C119.41 19.1491 116.267 18.8691 113.136 18.5526V43.4232V43.4353Z" fill="#262A71"/>
<path d="M139.163 20.549C138.062 24.2011 136.961 27.914 135.86 31.7C134.747 27.9262 133.647 24.0793 132.534 20.1473C131.115 20.0499 129.684 19.9525 128.265 19.8551C127.323 27.2201 126.394 34.7069 125.452 42.3519C126.883 42.2423 128.314 42.1327 129.733 42.0353C130.21 37.7624 130.687 33.5382 131.164 29.3505C132.399 33.5625 133.647 37.6772 134.882 41.7067C135.457 41.6701 136.032 41.6336 136.594 41.6093C137.903 37.4703 139.2 33.4165 140.508 29.4479C140.985 33.4286 141.462 37.3972 141.939 41.3293C143.37 41.2562 144.801 41.1954 146.232 41.1345C145.29 34.439 144.349 27.6584 143.419 20.7925C142 20.7316 140.569 20.6586 139.151 20.5733L139.163 20.549Z" fill="#262A71"/>
<path d="M164.591 23.775C163.771 22.8498 162.805 22.1194 161.668 21.5838C160.542 21.0481 159.307 20.756 157.962 20.7316C156.604 20.6951 155.369 20.9264 154.244 21.4255C153.118 21.9246 152.152 22.6307 151.345 23.5559C150.538 24.4811 149.902 25.5767 149.449 26.8549C148.996 28.1331 148.764 29.5088 148.764 30.9939C148.764 32.4791 148.996 33.8669 149.449 35.1329C149.902 36.4112 150.538 37.5068 151.345 38.432C152.152 39.3572 153.118 40.0632 154.244 40.5624C155.369 41.0615 156.604 41.2928 157.962 41.2563C159.295 41.2197 160.53 40.9397 161.668 40.4041C162.793 39.8685 163.771 39.138 164.591 38.2129C165.41 37.2877 166.046 36.2164 166.499 34.9747C166.951 33.7452 167.184 32.4182 167.184 30.9939C167.184 29.5696 166.951 28.2427 166.499 27.0132C166.046 25.7836 165.41 24.7002 164.591 23.775ZM162.279 33.1243C162.035 33.7695 161.692 34.3417 161.252 34.8164C160.824 35.3034 160.322 35.6686 159.76 35.9486C159.197 36.2164 158.598 36.3625 157.962 36.3625C157.326 36.3625 156.726 36.2407 156.164 35.9851C155.601 35.7294 155.1 35.3521 154.672 34.8773C154.244 34.3904 153.913 33.8304 153.656 33.1608C153.412 32.5035 153.277 31.773 153.277 30.9939C153.277 30.2148 153.4 29.4844 153.656 28.827C153.901 28.1697 154.244 27.5975 154.672 27.1106C155.1 26.6236 155.589 26.2584 156.164 26.0028C156.726 25.7471 157.326 25.6132 157.962 25.6254C158.598 25.6254 159.197 25.7715 159.76 26.0393C160.322 26.3071 160.824 26.6845 161.252 27.1714C161.68 27.6584 162.022 28.2184 162.279 28.8636C162.524 29.5088 162.658 30.2148 162.658 30.9818C162.658 31.7487 162.536 32.4548 162.279 33.1V33.1243Z" fill="#F0BC29"/>
<path d="M182.754 33.1608C180.1 29.2044 177.433 25.3089 174.779 21.4133C173.336 21.4133 171.905 21.4133 170.462 21.4133V40.5745C171.905 40.5745 173.336 40.5745 174.779 40.5745V28.8514C177.433 32.7591 180.1 36.679 182.754 40.6719C184.185 40.6963 185.616 40.7328 187.047 40.7693V21.2064C185.616 21.2429 184.185 21.2794 182.754 21.3038V33.1487V33.1608Z" fill="#262A71"/>
<path d="M189.517 25.4915C190.704 25.4671 191.878 25.455 193.064 25.4306V40.9763C194.508 41.025 195.939 41.0858 197.382 41.1467V25.3332C198.568 25.3089 199.742 25.2724 200.929 25.2358V20.6951C197.125 20.8777 193.321 21.036 189.517 21.1455V25.4793V25.4915Z" fill="#262A71"/>
<path d="M214.664 30.86C215.276 29.8009 215.581 28.4131 215.581 26.7088C215.581 25.7593 215.471 24.8706 215.239 24.0428C215.006 23.2272 214.676 22.5089 214.224 21.9124C213.771 21.3159 213.209 20.8533 212.524 20.5368C211.839 20.2203 211.031 20.0986 210.102 20.1594C207.864 20.3055 205.625 20.4394 203.387 20.5612V41.4267C204.83 41.4997 206.261 41.5849 207.705 41.6701V33.453C209.075 36.2042 210.444 39.0285 211.814 41.9258C213.6 42.0475 215.386 42.1814 217.184 42.3153C215.447 39.0893 213.71 35.9729 211.973 32.966C213.16 32.613 214.065 31.9069 214.664 30.86ZM210.481 29.1557C210.029 29.6183 209.368 29.8496 208.524 29.8618H207.705V24.6028C207.974 24.6028 208.243 24.5785 208.524 24.5785C209.38 24.5419 210.029 24.7489 210.481 25.1993C210.934 25.6497 211.166 26.3071 211.166 27.1714C211.166 28.0357 210.934 28.7053 210.481 29.1679V29.1557Z" fill="#262A71"/>
<path d="M219.532 42.5101C222.675 42.7658 225.819 43.0458 228.95 43.3501V37.9085C227.25 37.8111 225.537 37.7259 223.837 37.6407V33.5382C225.452 33.5747 227.054 33.5991 228.668 33.6356V28.2062C227.054 28.2427 225.452 28.2792 223.837 28.3036V24.335C225.537 24.2498 227.25 24.1646 228.95 24.0672V18.6256C225.806 18.9299 222.675 19.2099 219.532 19.4656V42.498V42.5101Z" fill="#262A71"/>
<path d="M242 23.3002V17.2378C238.869 17.6152 235.738 17.956 232.594 18.2847V43.7153C235.726 44.044 238.869 44.3849 242 44.7622V38.6998C240.3 38.5902 238.6 38.4807 236.9 38.3711V33.8304C238.502 33.8669 240.116 33.9034 241.719 33.9521V27.9018C240.116 27.9505 238.502 27.9871 236.9 28.0236V23.6167C238.6 23.5072 240.3 23.3976 242 23.2881V23.3002Z" fill="#262A71"/>
<path d="M140.374 47.0387H136.704V55.8645H139.016V52.9307H140.386C141.377 52.9307 142.147 52.675 142.673 52.1516C143.199 51.6403 143.468 50.9099 143.468 49.9725C143.468 49.0351 143.199 48.3047 142.673 47.7934C142.147 47.2821 141.377 47.0265 140.386 47.0265L140.374 47.0387ZM139.774 51.0925H139.004V48.889H139.774C140.618 48.889 141.046 49.2543 141.046 49.9847C141.046 50.7151 140.618 51.0803 139.774 51.0803V51.0925Z" fill="#F0BC29"/>
<path d="M147.272 47.0387H144.973V55.8645H150.036V53.9289H147.272V47.0387Z" fill="#F0BC29"/>
<path d="M156.8 51.8351C156.8 52.0907 156.8 52.3585 156.775 52.6263C156.751 52.8942 156.69 53.1376 156.592 53.3568C156.494 53.5759 156.335 53.7585 156.127 53.8924C155.919 54.0263 155.626 54.0993 155.234 54.0993C154.843 54.0993 154.549 54.0263 154.341 53.8924C154.133 53.7585 153.974 53.5759 153.877 53.3568C153.779 53.1376 153.718 52.8942 153.705 52.6263C153.681 52.3585 153.681 52.0907 153.681 51.8351V47.0387H151.369V52.1516C151.369 53.5272 151.687 54.5254 152.323 55.1584C152.959 55.7915 153.926 56.108 155.246 56.108C156.567 56.108 157.521 55.7915 158.157 55.1584C158.793 54.5254 159.099 53.5272 159.099 52.1516V47.0387H156.8V51.8351Z" fill="#F0BC29"/>
<path d="M168.174 47.0387L166.413 51.7498L164.628 47.0387H162.353L160.848 55.8645H163.135L163.906 50.7881L165.887 55.8645H166.805L168.908 50.7881L169.667 55.8645H171.966L170.462 47.0387H168.174Z" fill="#F0BC29"/>
<path d="M180.075 51.9203C179.928 51.7377 179.745 51.5794 179.512 51.4455C179.28 51.3116 178.999 51.2264 178.669 51.1533C178.999 50.9464 179.243 50.7029 179.402 50.4107C179.561 50.1186 179.647 49.7534 179.647 49.3029C179.647 48.5725 179.439 48.0125 179.011 47.6108C178.583 47.2213 177.971 47.0265 177.152 47.0265H173.715V55.8523H177.421C177.886 55.8523 178.314 55.8036 178.693 55.6941C179.072 55.5845 179.39 55.4263 179.647 55.2071C179.904 54.988 180.112 54.7202 180.259 54.4037C180.405 54.0872 180.479 53.722 180.479 53.3081C180.479 53.0402 180.442 52.7968 180.381 52.5533C180.32 52.322 180.21 52.1029 180.075 51.9203ZM176.027 48.7917H176.455C177.176 48.7917 177.531 49.0716 177.531 49.6438C177.531 50.216 177.164 50.496 176.455 50.496H176.027V48.7917ZM177.776 53.868C177.519 54.0141 177.103 54.0872 176.528 54.0872H176.027V52.2124H176.528C177.103 52.2124 177.519 52.2855 177.776 52.4316C178.033 52.5776 178.155 52.8211 178.155 53.1498C178.155 53.4785 178.033 53.722 177.776 53.868Z" fill="#F0BC29"/>
<path d="M184.466 47.0387H182.154V55.8645H184.466V47.0387Z" fill="#F0BC29"/>
<path d="M193.174 52.4316L188.918 47.0387H186.606V55.8645H188.918V50.4716L193.174 55.8645H195.474V47.0387H193.174V52.4316Z" fill="#F0BC29"/>
<path d="M202.115 52.7116H204.011C203.974 52.9672 203.901 53.1863 203.791 53.3689C203.681 53.5515 203.546 53.6976 203.375 53.8072C203.204 53.9167 203.02 54.002 202.8 54.0506C202.592 54.0993 202.372 54.1237 202.14 54.1237C201.76 54.1237 201.418 54.0628 201.124 53.9289C200.831 53.795 200.586 53.6124 200.391 53.3811C200.195 53.1498 200.048 52.8698 199.95 52.5533C199.852 52.2368 199.803 51.8838 199.803 51.5064C199.803 51.0925 199.865 50.7151 199.975 50.3864C200.085 50.0455 200.244 49.7656 200.439 49.5221C200.635 49.2786 200.88 49.096 201.161 48.9743C201.442 48.8404 201.76 48.7795 202.103 48.7795C202.519 48.7795 202.886 48.8891 203.216 49.096C203.546 49.303 203.803 49.656 204.011 50.1429L206.2 49.2421C205.797 48.4021 205.234 47.7934 204.537 47.3917C203.84 46.99 203.032 46.7952 202.103 46.7952C201.394 46.7952 200.745 46.9048 200.158 47.1361C199.583 47.3674 199.082 47.6839 198.666 48.0856C198.25 48.4873 197.932 48.9864 197.712 49.5586C197.492 50.1308 197.382 50.7638 197.382 51.4455C197.382 52.1272 197.492 52.7724 197.724 53.3446C197.957 53.9167 198.275 54.4159 198.678 54.8176C199.082 55.2315 199.571 55.548 200.146 55.7671C200.709 55.9984 201.345 56.108 202.029 56.108C202.531 56.108 203.008 56.0471 203.461 55.9254C203.913 55.8036 204.329 55.621 204.708 55.3776C205.087 55.1341 205.417 54.8419 205.699 54.4889C205.98 54.1359 206.2 53.722 206.371 53.2594C206.494 52.9307 206.567 52.5776 206.604 52.1881C206.641 51.8107 206.665 51.3846 206.665 50.9099H202.091V52.6872L202.115 52.7116Z" fill="#F0BC29"/>
<path d="M50.012 5.59984C49.4616 5.30768 48.9112 5.01551 48.3609 4.73552C48.3976 4.5164 48.4342 4.30944 48.4342 4.07815C48.4342 1.82604 46.5262 0 44.1779 0C42.8937 0 41.744 0.559984 40.9612 1.42431C40.1784 0.559984 39.0409 0 37.7445 0C35.3961 0 33.4881 1.82604 33.4881 4.07815C33.4881 4.29727 33.5248 4.5164 33.5615 4.73552C33.0111 5.01551 32.4607 5.30768 31.9103 5.59984C13.6374 10.0188 0 27.5244 0 48.4508C0 53.1742 0.69716 57.7271 1.99363 62C7.83999 59.2001 13.882 56.9114 20.9026 55.475L22.7127 59.1879C23.202 60.1009 24.315 60.4905 25.2567 60.0766L35.9832 55.5724C37.879 54.708 41.6094 53.6124 45.2298 55.9376L45.9636 56.1932C49.4249 57.301 54.1338 57.4471 57.693 56.5706L58.2923 58.1288C58.5981 59.3583 59.2096 60.174 60.1025 60.5392C60.4816 60.6974 60.873 60.7583 61.2522 60.7583C62.4997 60.7583 63.6128 60.1131 63.6739 60.0766L64.0164 59.8818L63.5883 56.3028C69.4713 57.7027 74.9752 59.6262 79.9287 62C81.213 57.7271 81.9224 53.1863 81.9224 48.4508C81.9224 27.5244 68.2849 10.0188 50.0243 5.59984H50.012ZM60.5795 59.4314C60.0413 59.2123 59.6744 58.6644 59.4665 57.8001L57.4239 52.5046L57.0692 55.475C53.7424 56.2176 49.4861 56.0471 46.3305 55.0489L45.8168 54.8906C41.7317 52.3098 37.5855 53.5272 35.494 54.4767L24.7675 58.981C24.4006 59.1392 23.9603 58.9931 23.789 58.6523L21.8321 54.635L17.8204 46.1013C17.8204 46.1013 18.4075 43.3136 21.5753 46.5761L22.9084 48.0247L24.3027 50.8003L23.997 48.1708C23.997 48.1708 27.3605 43.557 34.5155 44.5674C33.8184 43.1188 33.9162 41.3658 34.0874 40.2823C34.1241 40.2215 34.173 40.1606 34.2097 40.0997C34.5644 39.5641 34.8702 38.9554 34.8702 38.2859C34.8702 38.152 34.858 38.0302 34.8335 37.8963C34.54 36.472 34.4299 35.3155 34.4299 34.3903C34.4299 33.526 34.5155 32.8686 34.6256 32.406C35.4818 32.966 36.4358 33.3799 37.4387 33.6356C37.402 34.7921 37.5488 37.0685 39.3345 37.0198C41.5727 36.959 43.5297 37.2024 43.285 33.3799C44.3124 33.0269 45.2787 32.5034 46.1348 31.8461C46.1715 32.7591 46.2816 33.9643 46.6241 35.0721C46.8442 35.766 47.1622 36.4233 47.6515 36.9346C47.7982 37.0929 47.9817 37.2268 48.1652 37.3485C48.2508 38.0668 48.3731 39.1015 48.5199 40.1728C48.9235 43.0944 51.2473 45.4074 54.195 45.7118C57.8765 46.1013 60.9342 45.2126 60.9342 45.2126L62.304 55.7671H62.2796L62.6954 59.2123C62.2062 59.4314 61.2889 59.7357 60.555 59.4314H60.5795ZM67.2942 25.9175C67.0252 26.4775 65.8877 26.8306 65.5575 27.1592C65.3006 27.4149 65.056 28.0844 64.9581 28.4375L64.6035 29.7279C68.1993 31.6391 65.1905 39.4058 64.0531 39.9902C62.3774 40.8545 62.2674 40.3189 61.8882 39.7224L60.9097 43.3136C60.7263 43.9831 60.0291 44.3848 59.3564 44.2022C58.6837 44.0196 58.2801 43.3257 58.4636 42.6562C58.7204 41.7188 59.0996 40.3189 59.5154 38.7728C58.1822 38.4563 57.693 37.3485 57.534 36.3868C56.9102 36.0338 52.3481 33.6599 48.422 36.1677C47.9328 35.6564 47.5903 34.7434 47.4068 33.7817C47.2234 32.8199 47.1867 31.8339 47.1867 31.1765C47.1867 31.0548 47.1867 30.9574 47.1867 30.86C47.8349 30.2026 48.3975 29.46 48.8746 28.6566C53.3877 26.7453 57.3872 28.3279 60.3226 29.6305C60.9709 29.46 61.5457 29.3627 62.0594 29.3261C62.4386 27.561 62.4264 25.3941 62.2429 25.0897L62.1817 24.968C62.0839 24.7245 61.9983 24.4324 61.9616 24.055C61.8637 23.0689 63.3192 21.9368 64.0775 21.4742C64.6524 21.1333 65.1049 21.4985 65.1049 21.4985C65.1049 21.4985 64.1876 22.9472 63.8941 23.422C63.8329 23.5193 63.8329 23.6411 63.8941 23.7385C64.3711 24.5906 65.3006 24.7976 65.7042 24.8463C65.8265 24.8463 65.9489 24.7976 66.01 24.688C66.3035 24.1645 67.1964 22.6063 67.1964 22.6063C67.441 22.7646 67.6856 22.9715 67.6612 23.2637C67.6367 23.7872 67.6734 25.0167 67.2576 25.9175H67.2942Z" fill="#F0BC29"/>
<path d="M32.1305 20.8898C31.3477 21.0359 30.7117 20.9385 30.4182 21.4011C29.7332 22.5089 31.6046 23.1663 32.2161 23.6045C32.2161 24.0184 32.3262 25.041 32.3873 25.4671C32.6687 27.5001 33.6349 29.6183 35.3472 30.8113C36.5581 31.6634 37.9769 32.1139 39.4201 32.1991C41.6094 32.333 43.8599 31.6148 45.5355 30.1174C46.4773 29.2774 47.2601 28.2305 47.7982 27.0984C49.1314 24.2984 49.1069 20.7438 47.2356 18.2482C47.3457 18.0412 47.4069 17.8099 47.4069 17.5665C47.4069 16.7265 46.7219 16.0448 45.878 16.0448C45.6089 16.0448 45.3521 16.1178 45.1319 16.2395C43.8232 15.3022 42.2332 14.73 40.4964 14.73C39.6769 14.73 38.8697 14.8517 38.1236 15.0952C37.9279 15.1439 37.7445 15.217 37.5732 15.29C37.1085 15.4726 36.6559 15.7039 36.2401 15.9717C35.4206 15.5213 34.5033 15.217 33.6838 15.01C32.473 14.6935 31.1887 15.2413 30.5894 16.3369C30.0879 17.2621 30.1613 18.4064 30.7973 19.2464C31.2376 19.8429 31.7391 20.4759 32.106 20.8777L32.1305 20.8898ZM39.2489 23.9698C39.2978 23.6776 39.5669 23.4706 39.8604 23.5193C40.1539 23.568 40.3619 23.8358 40.3129 24.128C40.1539 25.2601 39.1021 27.4149 36.3257 27.4149C36.0321 27.4149 35.7875 27.1714 35.7875 26.8792C35.7875 26.5871 36.0321 26.3436 36.3257 26.3436C38.8575 26.3436 39.2244 24.0671 39.2489 23.9698Z" fill="#262A71"/>
<path d="M62.3285 55.755L60.9587 45.2005C60.9587 45.2005 57.9009 46.0891 54.2194 45.6996C51.2718 45.3953 48.9479 43.0823 48.5443 40.1606C48.3975 39.0893 48.2752 38.0424 48.1896 37.3363C48.0062 37.2146 47.8227 37.0807 47.6759 36.9224C47.1867 36.4112 46.8687 35.7538 46.6485 35.0599C46.2938 33.9521 46.1838 32.7469 46.1593 31.8339C45.3031 32.4913 44.3369 33.0147 43.3095 33.3678C43.5541 37.1903 41.6094 36.9468 39.3589 37.0077C37.561 37.0564 37.4265 34.7799 37.4631 33.6234C36.4602 33.3678 35.5062 32.9539 34.65 32.3939C34.54 32.8686 34.4544 33.5138 34.4544 34.3782C34.4544 35.3034 34.5522 36.4599 34.858 37.8842C34.8824 38.0181 34.8947 38.152 34.8947 38.2737C34.8947 38.9554 34.5889 39.5519 34.2342 40.0876C34.1975 40.1484 34.1486 40.2093 34.1119 40.2702C33.9407 41.3658 33.8428 43.1066 34.54 44.5553C27.3971 43.5449 24.0214 48.1587 24.0214 48.1587L24.3272 50.7881L22.9329 48.0126L21.5997 46.5639C18.4319 43.3014 17.8448 46.0891 17.8448 46.0891L21.8566 54.6228L23.8135 58.6401C23.997 58.981 24.425 59.127 24.792 58.9688L35.5184 54.4646C37.6099 53.515 41.7562 52.2977 45.8413 54.8785L46.355 55.0367C49.5106 56.0471 53.7791 56.2054 57.0937 55.4628L57.4484 52.4924L59.4909 57.7879C59.6989 58.6401 60.078 59.1879 60.604 59.4192C61.3378 59.7235 62.2551 59.4192 62.7444 59.2001L62.3285 55.755ZM35.4451 37.0807C35.4451 36.5085 35.8242 36.0459 36.2768 36.0459C36.7293 36.0459 37.1085 36.5085 37.1085 37.0807C37.1085 37.6529 36.7293 38.1155 36.2768 38.1155C35.8242 38.1155 35.4451 37.6529 35.4451 37.0807ZM45.1197 40.0876C43.5541 41.5484 41.9519 42.0475 40.5698 42.0475C39.3345 42.0475 38.2826 41.658 37.5488 41.2806C36.8149 40.9032 36.3746 40.5258 36.3501 40.5015C36.13 40.3189 36.1178 39.9902 36.3012 39.7711C36.4847 39.5519 36.8149 39.5398 37.0351 39.7224L37.084 39.7589C37.084 39.7589 37.1941 39.8441 37.2797 39.905C37.4509 40.0267 37.7078 40.185 38.0258 40.3554C38.6618 40.6841 39.5546 41.0006 40.5698 41.0006C41.7073 41.0006 43.016 40.6232 44.4103 39.3206C44.6182 39.1259 44.9484 39.138 45.1441 39.345C45.3398 39.5519 45.3276 39.8806 45.1197 40.0754V40.0876ZM44.8751 37.6894C44.4103 37.6894 44.0434 37.2268 44.0434 36.6546C44.0434 36.0825 44.4225 35.6199 44.8751 35.6199C45.3276 35.6199 45.7068 36.0825 45.7068 36.6546C45.7068 37.2268 45.3276 37.6894 44.8751 37.6894Z" fill="#262A71"/>
<path d="M18.1139 38.2981C18.7377 38.3589 19.6672 38.3224 20.4867 38.225C20.4867 38.225 25.11 43.277 33.0845 39.7954C33.1579 39.698 33.2313 39.6006 33.3047 39.4911C33.6104 39.0406 33.7939 38.5902 33.7939 38.2737C33.7939 38.2128 33.7939 38.152 33.7817 38.1033C33.4759 36.6059 33.3536 35.3764 33.3536 34.3782C33.3536 33.526 33.4392 32.8443 33.5493 32.3087C30.7484 33.5869 25.5258 35.4738 24.0581 31.9921C24.0337 30.8965 23.6545 29.5818 22.0156 29.1922C21.6486 29.1435 21.3062 29.0948 21.0126 29.0218L20.5234 28.9974C19.9975 28.9731 19.4715 28.8148 19.019 28.547L18.6276 28.3157C18.1017 28.1696 17.6491 28.1331 17.0254 28.3644C15.8512 28.7905 12.5244 35.2181 15.7656 37.5189C15.7656 37.5189 17.3434 38.4198 18.1262 38.2981H18.1139Z" fill="#262A71"/>
<path d="M67.2331 22.6063C67.2331 22.6063 66.3525 24.1645 66.0467 24.688C65.9855 24.7976 65.8632 24.8584 65.7409 24.8462C65.3251 24.7975 64.3955 24.6028 63.9308 23.7384C63.8818 23.6411 63.8818 23.5193 63.9308 23.4219C64.2243 22.9472 65.1416 21.4985 65.1416 21.4985C65.1416 21.4985 64.6891 21.1333 64.1142 21.4742C63.3437 21.9368 61.9004 23.0689 61.9983 24.055C62.035 24.4202 62.1206 24.7123 62.2184 24.968L62.2796 25.0897C62.463 25.3941 62.4753 27.561 62.0961 29.3261C61.5702 29.3748 60.9953 29.4722 60.3593 29.6305C57.4239 28.3401 53.4244 26.7575 48.9112 28.6566C48.4465 29.46 47.8716 30.2026 47.2234 30.86C47.2234 30.9574 47.2234 31.0548 47.2234 31.1765C47.2234 31.8217 47.2601 32.8199 47.4435 33.7816C47.627 34.7434 47.9572 35.6564 48.4587 36.1677C52.3848 33.6599 56.9469 36.0338 57.5707 36.3868C57.7297 37.3607 58.2312 38.4563 59.5521 38.7728C59.1363 40.3189 58.7571 41.7188 58.5003 42.6562C58.3168 43.3257 58.7204 44.0196 59.3931 44.2022C60.0658 44.3848 60.763 43.9831 60.9464 43.3136L61.9249 39.7224C62.2918 40.3189 62.4141 40.8545 64.0898 39.9902C65.2272 39.4058 68.236 31.6513 64.6401 29.7278L64.9948 28.4374C65.0927 28.0844 65.3251 27.4149 65.5942 27.1592C65.9244 26.8305 67.0619 26.4653 67.3309 25.9175C67.759 25.0167 67.7223 23.7871 67.7346 23.2637C67.7468 22.9715 67.5144 22.7646 67.2698 22.6063H67.2331ZM60.5061 42.997C60.396 43.3866 60.0046 43.6057 59.6133 43.5083C59.2219 43.3988 59.0017 43.0092 59.0996 42.6197C59.2096 42.2301 59.601 42.011 59.9924 42.1084C60.3838 42.2179 60.604 42.6075 60.5061 42.997Z" fill="#262A71"/>
<path d="M36.9862 22.1681C37.3286 22.3385 37.8423 21.9976 38.1481 21.4011C38.4539 20.8046 38.4294 20.1838 38.0992 20.0134C37.7567 19.8429 37.243 20.1838 36.9372 20.7803C36.6315 21.3768 36.6559 21.9976 36.9862 22.1681Z" fill="#F0BC29"/>
<path d="M35.7998 26.8793C35.7998 27.1714 36.0444 27.4149 36.3379 27.4149C39.1143 27.4149 40.1539 25.2602 40.3252 24.128C40.3619 23.8359 40.1662 23.568 39.8726 23.5193C39.5791 23.4707 39.31 23.6776 39.2611 23.9698C39.2489 24.0672 38.8697 26.3436 36.3379 26.3436C36.0444 26.3436 35.7998 26.5871 35.7998 26.8793Z" fill="#F0BC29"/>
<path d="M59.9924 42.1205C59.601 42.011 59.2096 42.2423 59.0996 42.6318C58.9895 43.0214 59.2219 43.4109 59.6133 43.5205C60.0046 43.6301 60.396 43.3988 60.5061 43.0092C60.6162 42.6197 60.3838 42.2301 59.9924 42.1205Z" fill="#F0BC29"/>
<path d="M44.8751 35.6199C44.4103 35.6199 44.0434 36.0825 44.0434 36.6546C44.0434 37.2268 44.4225 37.6894 44.8751 37.6894C45.3276 37.6894 45.7068 37.2268 45.7068 36.6546C45.7068 36.0825 45.3276 35.6199 44.8751 35.6199Z" fill="#F0BC29"/>
<path d="M37.1085 37.0807C37.1085 36.5086 36.7293 36.046 36.2768 36.046C35.8242 36.046 35.4451 36.5086 35.4451 37.0807C35.4451 37.6529 35.8242 38.1155 36.2768 38.1155C36.7293 38.1155 37.1085 37.6529 37.1085 37.0807Z" fill="#F0BC29"/>
<path d="M44.4103 39.3328C43.016 40.6232 41.7073 41.0128 40.5698 41.0128C39.5546 41.0128 38.6618 40.6963 38.0258 40.3676C37.7078 40.2093 37.4509 40.0389 37.2797 39.9172C37.1941 39.8563 37.1329 39.8076 37.084 39.7711L37.0351 39.7345C36.8149 39.5519 36.4969 39.5641 36.3012 39.7832C36.1178 40.0024 36.13 40.3189 36.3501 40.5137C36.3746 40.538 36.8027 40.9154 37.5488 41.2928C38.2826 41.6701 39.3345 42.0597 40.5698 42.0597C41.9519 42.0597 43.5541 41.5606 45.1197 40.0998C45.3276 39.905 45.3398 39.5763 45.1441 39.3693C44.9485 39.1624 44.6182 39.1502 44.4103 39.345V39.3328Z" fill="#F0BC29"/>
<path d="M28.3267 15.923C28.7548 14.5596 27.9842 13.1109 26.6144 12.6849L25.3668 12.3075C24.0214 11.8936 22.6027 12.6483 22.1868 13.9753L26.382 15.2657L25.7827 17.2012L21.9055 16.0082L21.6731 16.763L27.5072 18.5647L28.3267 15.9352V15.923Z" fill="#262A71"/>
<path d="M23.0177 23.8421L22.6313 25.0866L25.5177 25.9743L25.904 24.7297L23.0177 23.8421Z" fill="#262A71"/>
<path d="M22.4518 25.6709L22.0655 26.9154L24.9518 27.8031L25.3382 26.5586L22.4518 25.6709Z" fill="#262A71"/>
<path d="M22.2174 27.7807L21.9322 28.6995L24.059 29.3536L24.3442 28.4347L22.2174 27.7807Z" fill="#262A71"/>
<path d="M20.8536 29.8496L23.0307 22.8376L24.7675 23.3733C25.9906 23.7506 27.2993 23.0689 27.6785 21.8516L27.7029 21.7663C28.0821 20.549 27.3972 19.2586 26.1741 18.8812L21.5019 17.4447L21.2083 18.3943L24.4373 19.3925L24.2049 20.1473L20.9759 19.149L17.9182 28.9853L18.7377 29.4479C19.1169 29.6548 19.5327 29.7766 19.9608 29.8009L20.8536 29.8496Z" fill="#262A71"/>
<path d="M15.839 35.7294L13.9921 41.6701C13.7597 42.4371 14.1022 43.2892 14.8483 43.5936C15.6922 43.9466 16.6462 43.484 16.9153 42.6318L18.7622 36.679" fill="#262A71"/>
<path d="M15.9001 41.0006C15.4109 40.8545 14.8972 41.1223 14.7504 41.6093C14.6037 42.0962 14.8727 42.6075 15.362 42.7536C15.8512 42.8997 16.3649 42.6319 16.5117 42.1449C16.6584 41.658 16.3894 41.1467 15.9001 41.0006Z" fill="#F0BC29"/>
</g>
<defs>
<clipPath id="clip0_792_2055">
<rect width="242" height="62" fill="white"/>
</clipPath>
</defs>
</svg>
