<svg width="273" height="62" viewBox="0 0 273 62" fill="none" xmlns="http://www.w3.org/2000/svg">
<path d="M99.4473 10.6457C97.6315 10.4449 95.8158 10.2286 94 10.0124V44.9372C97.9885 44.4584 101.992 44.0104 105.981 43.6088V36.5034C103.793 36.6269 101.62 36.7659 99.4473 36.8895V10.6457Z" fill="#262A71"/>
<path d="M109.488 43.2535C113.477 42.8673 117.45 42.4966 121.438 42.1722V35.7001C119.265 35.7928 117.108 35.9009 114.951 36.009V30.7417C117 30.6954 119.033 30.6645 121.081 30.6336V24.146C119.033 24.1151 117 24.0688 114.951 24.0225V18.9251C117.108 19.0332 119.281 19.1413 121.438 19.234V12.7619C117.45 12.4375 113.461 12.0822 109.488 11.6806V43.2381V43.2535Z" fill="#262A71"/>
<path d="M142.513 14.2138C141.117 18.8478 139.72 23.559 138.323 28.3629C136.911 23.5745 135.514 18.6934 134.102 13.7041C132.302 13.5805 130.486 13.4569 128.686 13.3334C127.491 22.6786 126.311 32.1783 125.116 41.8787C126.932 41.7397 128.748 41.6007 130.548 41.4771C131.153 36.0554 131.759 30.6954 132.364 25.3817C133.931 30.7263 135.514 35.9472 137.082 41.0601C137.811 41.0137 138.54 40.9674 139.254 40.9365C140.915 35.6846 142.56 30.5409 144.221 25.5053C144.826 30.5564 145.431 35.592 146.036 40.5812C147.852 40.4885 149.668 40.4113 151.484 40.3341C150.289 31.8384 149.094 23.2347 147.914 14.5228C146.114 14.4455 144.298 14.3529 142.498 14.2447L142.513 14.2138Z" fill="#262A71"/>
<path d="M174.778 18.3072C173.738 17.1332 172.512 16.2064 171.069 15.5268C169.641 14.8471 168.074 14.4764 166.367 14.4455C164.644 14.3992 163.077 14.6927 161.649 15.326C160.221 15.9593 158.995 16.8552 157.971 18.0292C156.946 19.2031 156.139 20.5933 155.565 22.2152C154.991 23.8371 154.696 25.5826 154.696 27.467C154.696 29.3515 154.991 31.1124 155.565 32.7189C156.139 34.3408 156.946 35.731 157.971 36.9049C158.995 38.0789 160.221 38.9748 161.649 39.6081C163.077 40.2414 164.644 40.5349 166.367 40.4885C168.058 40.4422 169.626 40.0869 171.069 39.4073C172.497 38.7276 173.738 37.8008 174.778 36.6269C175.818 35.4529 176.625 34.0936 177.199 32.5181C177.773 30.958 178.068 29.2743 178.068 27.467C178.068 25.6598 177.773 23.9761 177.199 22.416C176.625 20.8559 175.818 19.4811 174.778 18.3072ZM171.845 30.1702C171.535 30.9889 171.1 31.7149 170.541 32.3173C169.998 32.9351 169.362 33.3985 168.648 33.7538C167.934 34.0936 167.174 34.279 166.367 34.279C165.56 34.279 164.799 34.1245 164.085 33.8002C163.371 33.4758 162.735 32.9969 162.192 32.3945C161.649 31.7766 161.23 31.0661 160.904 30.2165C160.594 29.3824 160.423 28.4556 160.423 27.467C160.423 26.4785 160.578 25.5517 160.904 24.7175C161.214 23.8834 161.649 23.1574 162.192 22.5396C162.735 21.9217 163.356 21.4583 164.085 21.1339C164.799 20.8095 165.56 20.6396 166.367 20.6551C167.174 20.6551 167.934 20.8404 168.648 21.1803C169.362 21.5201 169.998 21.9989 170.541 22.6168C171.085 23.2347 171.519 23.9452 171.845 24.7639C172.155 25.5826 172.326 26.4785 172.326 27.4516C172.326 28.4247 172.171 29.3206 171.845 30.1393V30.1702Z" fill="#F0BC29"/>
<path d="M197.824 30.2165C194.457 25.1963 191.073 20.2534 187.706 15.3105C185.874 15.3105 184.059 15.3105 182.227 15.3105V39.6235C184.059 39.6235 185.874 39.6235 187.706 39.6235V24.7484C191.073 29.7068 194.457 34.6806 197.824 39.7471C199.64 39.778 201.456 39.8243 203.272 39.8706V15.0479C201.456 15.0943 199.64 15.1406 197.824 15.1715V30.2011V30.2165Z" fill="#262A71"/>
<path d="M206.406 20.4851C207.912 20.4542 209.402 20.4388 210.907 20.4079V40.1332C212.738 40.195 214.554 40.2723 216.385 40.3495V20.2843C217.891 20.2534 219.381 20.2071 220.886 20.1608V14.3992C216.06 14.6309 211.233 14.8317 206.406 14.9707V20.4697V20.4851Z" fill="#262A71"/>
<path d="M238.314 27.2971C239.09 25.9533 239.478 24.1924 239.478 22.0298C239.478 20.825 239.339 19.6974 239.044 18.647C238.749 17.6121 238.33 16.7008 237.756 15.9439C237.181 15.187 236.467 14.6 235.598 14.1984C234.729 13.7968 233.705 13.6423 232.526 13.7196C229.686 13.9049 226.845 14.0748 224.005 14.2293V40.7048C225.837 40.7975 227.652 40.9056 229.484 41.0137V30.5873C231.222 34.0782 232.96 37.6618 234.698 41.3381C236.964 41.4926 239.23 41.6625 241.511 41.8324C239.308 37.7391 237.104 33.7847 234.9 29.9694C236.405 29.5215 237.554 28.6256 238.314 27.2971ZM233.007 25.1346C232.432 25.7216 231.594 26.0151 230.524 26.0305H229.484V19.3576C229.825 19.3576 230.167 19.3267 230.524 19.3267C231.61 19.2803 232.432 19.5429 233.007 20.1145C233.581 20.686 233.876 21.5201 233.876 22.6168C233.876 23.7135 233.581 24.5631 233.007 25.1501V25.1346Z" fill="#262A71"/>
<path d="M244.491 42.0796C248.479 42.404 252.468 42.7592 256.441 43.1454V36.2408C254.284 36.1172 252.111 36.0091 249.954 35.9009V30.6954C252.002 30.7418 254.035 30.7727 256.084 30.819V23.9298C254.035 23.9761 252.002 24.0225 249.954 24.0534V19.0178C252.111 18.9097 254.284 18.8015 256.441 18.678V11.7733C252.452 12.1595 248.479 12.5148 244.491 12.8391V42.0641V42.0796Z" fill="#262A71"/>
<path d="M273 17.7048V10.0124C269.027 10.4912 265.054 10.9237 261.066 11.3408V43.6088C265.039 44.0259 269.027 44.4584 273 44.9372V37.2448C270.843 37.1058 268.686 36.9668 266.528 36.8277V31.0661C268.561 31.1125 270.61 31.1588 272.643 31.2206V23.5436C270.61 23.6054 268.561 23.6518 266.528 23.6981V18.1064C268.686 17.9674 270.843 17.8284 273 17.6894V17.7048Z" fill="#262A71"/>
<path d="M144.05 47.8257H139.394V59.0246H142.327V55.3019H144.065C145.322 55.3019 146.3 54.9775 146.968 54.3133C147.635 53.6646 147.976 52.7378 147.976 51.5484C147.976 50.359 147.635 49.4322 146.968 48.7834C146.3 48.1347 145.322 47.8103 144.065 47.8103L144.05 47.8257ZM143.289 52.9695H142.312V50.1736H143.289C144.36 50.1736 144.903 50.637 144.903 51.5638C144.903 52.4906 144.36 52.954 143.289 52.954V52.9695Z" fill="#F0BC29"/>
<path d="M152.803 47.8257H149.885V59.0245H156.31V56.5685H152.803V47.8257Z" fill="#F0BC29"/>
<path d="M164.892 53.9117C164.892 54.236 164.892 54.5759 164.861 54.9157C164.83 55.2555 164.753 55.5644 164.628 55.8425C164.504 56.1205 164.303 56.3522 164.039 56.5221C163.775 56.692 163.402 56.7847 162.906 56.7847C162.409 56.7847 162.037 56.692 161.773 56.5221C161.509 56.3522 161.307 56.1205 161.183 55.8425C161.059 55.5644 160.981 55.2555 160.966 54.9157C160.935 54.5759 160.935 54.236 160.935 53.9117V47.8257H158.002V54.3133C158.002 56.0587 158.405 57.3254 159.212 58.1286C160.019 58.9318 161.245 59.3334 162.921 59.3334C164.597 59.3334 165.808 58.9318 166.615 58.1286C167.422 57.3254 167.81 56.0587 167.81 54.3133V47.8257H164.892V53.9117Z" fill="#F0BC29"/>
<path d="M179.325 47.8257L177.091 53.8035L174.825 47.8257H171.938L170.029 59.0245H172.931L173.909 52.5832L176.423 59.0245H177.587L180.256 52.5832L181.219 59.0245H184.136L182.227 47.8257H179.325Z" fill="#F0BC29"/>
<path d="M194.426 54.0198C194.239 53.7881 194.007 53.5873 193.712 53.4174C193.417 53.2475 193.06 53.1394 192.641 53.0467C193.06 52.7841 193.37 52.4752 193.572 52.1045C193.774 51.7337 193.882 51.2703 193.882 50.6988C193.882 49.772 193.619 49.0615 193.075 48.5517C192.532 48.0574 191.756 47.8103 190.717 47.8103H186.356V59.0091H191.058C191.648 59.0091 192.191 58.9473 192.672 58.8083C193.153 58.6693 193.557 58.4685 193.882 58.1904C194.208 57.9124 194.472 57.5726 194.658 57.171C194.845 56.7693 194.938 56.3059 194.938 55.7808C194.938 55.4409 194.891 55.132 194.814 54.8231C194.736 54.5296 194.596 54.2515 194.426 54.0198ZM189.289 50.0501H189.832C190.748 50.0501 191.198 50.4053 191.198 51.1313C191.198 51.8573 190.732 52.2126 189.832 52.2126H189.289V50.0501ZM191.508 56.4913C191.182 56.6767 190.654 56.7693 189.925 56.7693H189.289V54.3906H189.925C190.654 54.3906 191.182 54.4832 191.508 54.6686C191.834 54.854 191.989 55.1629 191.989 55.58C191.989 55.997 191.834 56.3059 191.508 56.4913Z" fill="#F0BC29"/>
<path d="M199.997 47.8257H197.064V59.0245H199.997V47.8257Z" fill="#F0BC29"/>
<path d="M211.047 54.6685L205.646 47.8257H202.713V59.0245H205.646V52.1816L211.047 59.0245H213.965V47.8257H211.047V54.6685Z" fill="#F0BC29"/>
<path d="M222.391 55.0238H224.797C224.75 55.3482 224.657 55.6263 224.518 55.858C224.378 56.0897 224.207 56.275 223.99 56.414C223.773 56.5531 223.54 56.6612 223.261 56.723C222.997 56.7848 222.717 56.8157 222.423 56.8157C221.941 56.8157 221.507 56.7384 221.134 56.5685C220.762 56.3986 220.452 56.1669 220.203 55.8734C219.955 55.5799 219.769 55.2247 219.645 54.823C219.52 54.4214 219.458 53.9735 219.458 53.4946C219.458 52.9694 219.536 52.4906 219.676 52.0735C219.815 51.641 220.017 51.2858 220.265 50.9768C220.514 50.6679 220.824 50.4362 221.181 50.2817C221.538 50.1118 221.941 50.0346 222.376 50.0346C222.904 50.0346 223.369 50.1736 223.788 50.4362C224.207 50.6988 224.533 51.1467 224.797 51.7646L227.575 50.6216C227.063 49.5557 226.349 48.7834 225.464 48.2737C224.58 47.7639 223.555 47.5168 222.376 47.5168C221.476 47.5168 220.653 47.6558 219.908 47.9493C219.179 48.2428 218.543 48.6444 218.015 49.1541C217.487 49.6639 217.084 50.2972 216.805 51.0232C216.525 51.7492 216.385 52.5524 216.385 53.4174C216.385 54.2824 216.525 55.1011 216.82 55.8271C217.115 56.5531 217.518 57.1864 218.031 57.6961C218.543 58.2213 219.163 58.6229 219.893 58.901C220.607 59.1944 221.414 59.3335 222.283 59.3335C222.919 59.3335 223.524 59.2562 224.099 59.1018C224.673 58.9473 225.2 58.7156 225.682 58.4067C226.163 58.0977 226.582 57.727 226.939 57.2791C227.296 56.8311 227.575 56.3059 227.792 55.7189C227.947 55.3019 228.041 54.8539 228.087 54.3596C228.134 53.8808 228.165 53.3402 228.165 52.7377H222.36V54.993L222.391 55.0238Z" fill="#F0BC29"/>
<path d="M50.012 5.59984C49.4616 5.30768 48.9112 5.01551 48.3609 4.73552C48.3976 4.5164 48.4342 4.30944 48.4342 4.07815C48.4342 1.82604 46.5262 0 44.1779 0C42.8937 0 41.744 0.559984 40.9612 1.42431C40.1784 0.559984 39.0409 0 37.7445 0C35.3961 0 33.4881 1.82604 33.4881 4.07815C33.4881 4.29727 33.5248 4.5164 33.5615 4.73552C33.0111 5.01551 32.4607 5.30768 31.9103 5.59984C13.6374 10.0188 0 27.5244 0 48.4508C0 53.1742 0.69716 57.7271 1.99363 62C7.83999 59.2001 13.882 56.9114 20.9026 55.475L22.7127 59.1879C23.202 60.1009 24.315 60.4905 25.2567 60.0766L35.9832 55.5724C37.879 54.708 41.6094 53.6124 45.2298 55.9376L45.9636 56.1932C49.4249 57.301 54.1338 57.4471 57.693 56.5706L58.2923 58.1288C58.5981 59.3583 59.2096 60.174 60.1025 60.5392C60.4816 60.6974 60.873 60.7583 61.2522 60.7583C62.4997 60.7583 63.6128 60.1131 63.6739 60.0766L64.0164 59.8818L63.5883 56.3028C69.4713 57.7027 74.9752 59.6262 79.9287 62C81.213 57.7271 81.9224 53.1863 81.9224 48.4508C81.9224 27.5244 68.2849 10.0188 50.0243 5.59984H50.012ZM60.5795 59.4314C60.0413 59.2123 59.6744 58.6644 59.4665 57.8001L57.4239 52.5046L57.0692 55.475C53.7424 56.2176 49.4861 56.0471 46.3305 55.0489L45.8168 54.8906C41.7317 52.3098 37.5855 53.5272 35.494 54.4767L24.7675 58.981C24.4006 59.1392 23.9603 58.9931 23.789 58.6523L21.8321 54.635L17.8204 46.1013C17.8204 46.1013 18.4075 43.3136 21.5753 46.5761L22.9084 48.0247L24.3027 50.8003L23.997 48.1708C23.997 48.1708 27.3605 43.557 34.5155 44.5674C33.8184 43.1188 33.9162 41.3658 34.0874 40.2823C34.1241 40.2215 34.173 40.1606 34.2097 40.0997C34.5644 39.5641 34.8702 38.9554 34.8702 38.2859C34.8702 38.152 34.858 38.0302 34.8335 37.8963C34.54 36.472 34.4299 35.3155 34.4299 34.3903C34.4299 33.526 34.5155 32.8686 34.6256 32.406C35.4818 32.966 36.4358 33.3799 37.4387 33.6356C37.402 34.7921 37.5488 37.0685 39.3345 37.0198C41.5727 36.959 43.5297 37.2024 43.285 33.3799C44.3124 33.0269 45.2787 32.5034 46.1348 31.8461C46.1715 32.7591 46.2816 33.9643 46.6241 35.0721C46.8442 35.766 47.1622 36.4233 47.6515 36.9346C47.7982 37.0929 47.9817 37.2268 48.1652 37.3485C48.2508 38.0668 48.3731 39.1015 48.5199 40.1728C48.9235 43.0944 51.2473 45.4074 54.195 45.7118C57.8765 46.1013 60.9342 45.2126 60.9342 45.2126L62.304 55.7671H62.2796L62.6954 59.2123C62.2062 59.4314 61.2889 59.7357 60.555 59.4314H60.5795ZM67.2942 25.9175C67.0252 26.4775 65.8877 26.8306 65.5575 27.1592C65.3006 27.4149 65.056 28.0844 64.9581 28.4375L64.6035 29.7279C68.1993 31.6391 65.1905 39.4058 64.0531 39.9902C62.3774 40.8545 62.2674 40.3189 61.8882 39.7224L60.9097 43.3136C60.7263 43.9831 60.0291 44.3848 59.3564 44.2022C58.6837 44.0196 58.2801 43.3257 58.4636 42.6562C58.7204 41.7188 59.0996 40.3189 59.5154 38.7728C58.1822 38.4563 57.693 37.3485 57.534 36.3868C56.9102 36.0338 52.3481 33.6599 48.422 36.1677C47.9328 35.6564 47.5903 34.7434 47.4068 33.7817C47.2234 32.8199 47.1867 31.8339 47.1867 31.1765C47.1867 31.0548 47.1867 30.9574 47.1867 30.86C47.8349 30.2026 48.3975 29.46 48.8746 28.6566C53.3877 26.7453 57.3872 28.3279 60.3226 29.6305C60.9709 29.46 61.5457 29.3627 62.0594 29.3261C62.4386 27.561 62.4264 25.3941 62.2429 25.0897L62.1817 24.968C62.0839 24.7245 61.9983 24.4324 61.9616 24.055C61.8637 23.0689 63.3192 21.9368 64.0775 21.4742C64.6524 21.1333 65.1049 21.4985 65.1049 21.4985C65.1049 21.4985 64.1876 22.9472 63.8941 23.422C63.8329 23.5193 63.8329 23.6411 63.8941 23.7385C64.3711 24.5906 65.3006 24.7976 65.7042 24.8463C65.8265 24.8463 65.9489 24.7976 66.01 24.688C66.3035 24.1645 67.1964 22.6063 67.1964 22.6063C67.441 22.7646 67.6856 22.9715 67.6612 23.2637C67.6367 23.7872 67.6734 25.0167 67.2576 25.9175H67.2942Z" fill="#F0BC29"/>
<path d="M32.1305 20.8899C31.3477 21.036 30.7117 20.9386 30.4182 21.4012C29.7333 22.509 31.6046 23.1663 32.2161 23.6046C32.2161 24.0185 32.3262 25.0411 32.3874 25.4671C32.6687 27.5001 33.6349 29.6183 35.3472 30.8113C36.5581 31.6635 37.9769 32.1139 39.4201 32.1991C41.6094 32.333 43.8599 31.6148 45.5355 30.1174C46.4773 29.2775 47.2601 28.2305 47.7983 27.0984C49.1314 24.2985 49.107 20.7438 47.2356 18.2482C47.3457 18.0413 47.4069 17.81 47.4069 17.5665C47.4069 16.7265 46.7219 16.0448 45.878 16.0448C45.6089 16.0448 45.3521 16.1178 45.1319 16.2396C43.8232 15.3022 42.2332 14.73 40.4964 14.73C39.677 14.73 38.8697 14.8518 38.1236 15.0952C37.9279 15.1439 37.7445 15.217 37.5732 15.29C37.1085 15.4726 36.6559 15.7039 36.2401 15.9717C35.4206 15.5213 34.5033 15.217 33.6838 15.01C32.473 14.6935 31.1887 15.2413 30.5894 16.337C30.088 17.2621 30.1613 18.4065 30.7973 19.2464C31.2377 19.8429 31.7391 20.476 32.1061 20.8777L32.1305 20.8899ZM39.2489 23.9698C39.2978 23.6776 39.5669 23.4707 39.8604 23.5194C40.154 23.5681 40.3619 23.8359 40.313 24.128C40.154 25.2602 39.1021 27.4149 36.3257 27.4149C36.0322 27.4149 35.7875 27.1714 35.7875 26.8793C35.7875 26.5871 36.0322 26.3436 36.3257 26.3436C38.8575 26.3436 39.2244 24.0672 39.2489 23.9698Z" fill="#262A71"/>
<path d="M62.3285 55.7549L60.9587 45.2004C60.9587 45.2004 57.901 46.0891 54.2195 45.6996C51.2718 45.3952 48.948 43.0822 48.5443 40.1606C48.3976 39.0893 48.2753 38.0424 48.1896 37.3363C48.0062 37.2146 47.8227 37.0807 47.6759 36.9224C47.1867 36.4111 46.8687 35.7538 46.6485 35.0599C46.2939 33.9521 46.1838 32.7469 46.1593 31.8339C45.3032 32.4912 44.3369 33.0147 43.3095 33.3677C43.5541 37.1902 41.6094 36.9468 39.359 37.0076C37.561 37.0563 37.4265 34.7799 37.4632 33.6234C36.4602 33.3677 35.5062 32.9538 34.6501 32.3938C34.54 32.8686 34.4544 33.5138 34.4544 34.3781C34.4544 35.3033 34.5522 36.4598 34.858 37.8841C34.8825 38.018 34.8947 38.1519 34.8947 38.2737C34.8947 38.9554 34.5889 39.5519 34.2342 40.0875C34.1975 40.1484 34.1486 40.2093 34.1119 40.2702C33.9407 41.3658 33.8428 43.1066 34.54 44.5552C27.3972 43.5448 24.0214 48.1586 24.0214 48.1586L24.3272 50.7881L22.9329 48.0125L21.5997 46.5639C18.4319 43.3014 17.8448 46.0891 17.8448 46.0891L21.8566 54.6228L23.8135 58.6401C23.997 58.9809 24.4251 59.127 24.792 58.9688L35.5185 54.4645C37.6099 53.515 41.7562 52.2976 45.8413 54.8784L46.355 55.0367C49.5106 56.0471 53.7791 56.2054 57.0937 55.4628L57.4484 52.4924L59.491 57.7879C59.6989 58.6401 60.078 59.1879 60.604 59.4192C61.3378 59.7235 62.2551 59.4192 62.7444 59.2001L62.3285 55.7549ZM35.4451 37.0807C35.4451 36.5085 35.8242 36.0459 36.2768 36.0459C36.7293 36.0459 37.1085 36.5085 37.1085 37.0807C37.1085 37.6528 36.7293 38.1154 36.2768 38.1154C35.8242 38.1154 35.4451 37.6528 35.4451 37.0807ZM45.1197 40.0875C43.5541 41.5484 41.9519 42.0475 40.5698 42.0475C39.3345 42.0475 38.2826 41.6579 37.5488 41.2806C36.8149 40.9032 36.3746 40.5258 36.3502 40.5014C36.13 40.3188 36.1178 39.9902 36.3012 39.771C36.4847 39.5519 36.8149 39.5397 37.0351 39.7223L37.084 39.7589C37.084 39.7589 37.1941 39.8441 37.2797 39.9049C37.4509 40.0267 37.7078 40.1849 38.0258 40.3554C38.6618 40.6841 39.5546 41.0006 40.5698 41.0006C41.7073 41.0006 43.016 40.6232 44.4103 39.3206C44.6182 39.1258 44.9485 39.138 45.1442 39.345C45.3398 39.5519 45.3276 39.8806 45.1197 40.0754V40.0875ZM44.8751 37.6893C44.4103 37.6893 44.0434 37.2268 44.0434 36.6546C44.0434 36.0824 44.4225 35.6198 44.8751 35.6198C45.3276 35.6198 45.7068 36.0824 45.7068 36.6546C45.7068 37.2268 45.3276 37.6893 44.8751 37.6893Z" fill="#262A71"/>
<path d="M18.1139 38.2981C18.7377 38.359 19.6672 38.3224 20.4867 38.225C20.4867 38.225 25.1099 43.2771 33.0845 39.7954C33.1579 39.698 33.2312 39.6007 33.3046 39.4911C33.6104 39.0407 33.7939 38.5903 33.7939 38.2737C33.7939 38.2129 33.7939 38.152 33.7816 38.1033C33.4759 36.606 33.3536 35.3764 33.3536 34.3782C33.3536 33.526 33.4392 32.8443 33.5493 32.3087C30.7484 33.5869 25.5258 35.4738 24.0581 31.9922C24.0336 30.8966 23.6545 29.5818 22.0155 29.1923C21.6486 29.1436 21.3061 29.0949 21.0126 29.0218L20.5234 28.9975C19.9974 28.9731 19.4715 28.8149 19.019 28.5471L18.6276 28.3158C18.1017 28.1697 17.6491 28.1332 17.0253 28.3644C15.8512 28.7905 12.5244 35.2182 15.7656 37.519C15.7656 37.519 17.3433 38.4198 18.1261 38.2981H18.1139Z" fill="#262A71"/>
<path d="M67.2331 22.6063C67.2331 22.6063 66.3525 24.1645 66.0467 24.688C65.9855 24.7976 65.8632 24.8584 65.7409 24.8462C65.3251 24.7975 64.3955 24.6028 63.9308 23.7384C63.8818 23.6411 63.8818 23.5193 63.9308 23.4219C64.2243 22.9472 65.1416 21.4985 65.1416 21.4985C65.1416 21.4985 64.6891 21.1333 64.1142 21.4742C63.3437 21.9368 61.9004 23.0689 61.9983 24.055C62.035 24.4202 62.1206 24.7123 62.2184 24.968L62.2796 25.0897C62.463 25.3941 62.4753 27.561 62.0961 29.3261C61.5702 29.3748 60.9953 29.4722 60.3593 29.6305C57.4239 28.3401 53.4244 26.7575 48.9112 28.6566C48.4465 29.46 47.8716 30.2026 47.2234 30.86C47.2234 30.9574 47.2234 31.0548 47.2234 31.1765C47.2234 31.8217 47.2601 32.8199 47.4435 33.7816C47.627 34.7434 47.9572 35.6564 48.4587 36.1677C52.3848 33.6599 56.9469 36.0338 57.5707 36.3868C57.7297 37.3607 58.2312 38.4563 59.5521 38.7728C59.1363 40.3189 58.7571 41.7188 58.5003 42.6562C58.3168 43.3257 58.7204 44.0196 59.3931 44.2022C60.0658 44.3848 60.763 43.9831 60.9464 43.3136L61.9249 39.7224C62.2918 40.3189 62.4141 40.8545 64.0898 39.9902C65.2272 39.4058 68.236 31.6513 64.6401 29.7278L64.9948 28.4374C65.0927 28.0844 65.3251 27.4149 65.5942 27.1592C65.9244 26.8305 67.0619 26.4653 67.3309 25.9175C67.759 25.0167 67.7223 23.7871 67.7346 23.2637C67.7468 22.9715 67.5144 22.7646 67.2698 22.6063H67.2331ZM60.5061 42.997C60.396 43.3866 60.0046 43.6057 59.6133 43.5083C59.2219 43.3988 59.0017 43.0092 59.0996 42.6197C59.2096 42.2301 59.601 42.011 59.9924 42.1084C60.3838 42.2179 60.604 42.6075 60.5061 42.997Z" fill="#262A71"/>
<path d="M36.9862 22.1681C37.3286 22.3385 37.8423 21.9976 38.1481 21.4011C38.4539 20.8046 38.4294 20.1838 38.0992 20.0134C37.7567 19.8429 37.243 20.1838 36.9372 20.7803C36.6315 21.3768 36.6559 21.9976 36.9862 22.1681Z" fill="#F0BC29"/>
<path d="M35.7997 26.8792C35.7997 27.1714 36.0444 27.4149 36.3379 27.4149C39.1143 27.4149 40.1539 25.2601 40.3252 24.128C40.3619 23.8358 40.1662 23.568 39.8726 23.5193C39.5791 23.4706 39.31 23.6776 39.2611 23.9697C39.2488 24.0671 38.8697 26.3436 36.3379 26.3436C36.0444 26.3436 35.7997 26.5871 35.7997 26.8792Z" fill="#F0BC29"/>
<path d="M59.9924 42.1205C59.601 42.011 59.2096 42.2423 59.0996 42.6318C58.9895 43.0214 59.2219 43.4109 59.6133 43.5205C60.0046 43.6301 60.396 43.3988 60.5061 43.0092C60.6162 42.6197 60.3838 42.2301 59.9924 42.1205Z" fill="#F0BC29"/>
<path d="M44.875 35.6199C44.4103 35.6199 44.0433 36.0825 44.0433 36.6546C44.0433 37.2268 44.4225 37.6894 44.875 37.6894C45.3276 37.6894 45.7067 37.2268 45.7067 36.6546C45.7067 36.0825 45.3276 35.6199 44.875 35.6199Z" fill="#F0BC29"/>
<path d="M37.1085 37.0807C37.1085 36.5086 36.7293 36.046 36.2768 36.046C35.8242 36.046 35.4451 36.5086 35.4451 37.0807C35.4451 37.6529 35.8242 38.1155 36.2768 38.1155C36.7293 38.1155 37.1085 37.6529 37.1085 37.0807Z" fill="#F0BC29"/>
<path d="M44.4103 39.3328C43.016 40.6232 41.7073 41.0127 40.5698 41.0127C39.5546 41.0127 38.6618 40.6962 38.0258 40.3675C37.7078 40.2093 37.4509 40.0389 37.2797 39.9171C37.1941 39.8563 37.1329 39.8076 37.084 39.771L37.0351 39.7345C36.8149 39.5519 36.4969 39.5641 36.3012 39.7832C36.1178 40.0023 36.13 40.3188 36.3501 40.5136C36.3746 40.538 36.8027 40.9154 37.5488 41.2927C38.2826 41.6701 39.3345 42.0597 40.5698 42.0597C41.9519 42.0597 43.5541 41.5606 45.1197 40.0997C45.3276 39.9049 45.3398 39.5763 45.1441 39.3693C44.9485 39.1624 44.6182 39.1502 44.4103 39.345V39.3328Z" fill="#F0BC29"/>
<path d="M28.3267 15.923C28.7548 14.5596 27.9842 13.1109 26.6144 12.6849L25.3668 12.3075C24.0214 11.8936 22.6026 12.6483 22.1868 13.9753L26.382 15.2657L25.7827 17.2012L21.9055 16.0082L21.6731 16.763L27.5072 18.5647L28.3267 15.9352V15.923Z" fill="#262A71"/>
<path d="M23.0176 23.8421L22.6313 25.0866L25.5177 25.9743L25.904 24.7297L23.0176 23.8421Z" fill="#262A71"/>
<path d="M22.4518 25.6709L22.0654 26.9155L24.9518 27.8031L25.3382 26.5586L22.4518 25.6709Z" fill="#262A71"/>
<path d="M22.2174 27.7807L21.9322 28.6995L24.059 29.3536L24.3442 28.4347L22.2174 27.7807Z" fill="#262A71"/>
<path d="M20.8536 29.8496L23.0307 22.8376L24.7675 23.3732C25.9906 23.7506 27.2993 23.0689 27.6784 21.8515L27.7029 21.7663C28.0821 20.549 27.3971 19.2586 26.1741 18.8812L21.5019 17.4447L21.2083 18.3942L24.4373 19.3925L24.2049 20.1472L20.9759 19.149L17.9182 28.9852L18.7377 29.4478C19.1168 29.6548 19.5327 29.7765 19.9608 29.8009L20.8536 29.8496Z" fill="#262A71"/>
<path d="M15.839 35.7294L13.9921 41.6701C13.7597 42.4371 14.1022 43.2892 14.8483 43.5936C15.6922 43.9466 16.6462 43.484 16.9153 42.6318L18.7621 36.679" fill="#262A71"/>
<path d="M15.9002 41.0006C15.4109 40.8545 14.8972 41.1223 14.7504 41.6092C14.6037 42.0962 14.8728 42.6075 15.362 42.7536C15.8512 42.8996 16.3649 42.6318 16.5117 42.1449C16.6585 41.6579 16.3894 41.1466 15.9002 41.0006Z" fill="#F0BC29"/>
</svg>
