<svg width="26" height="25" viewBox="0 0 26 25" fill="none" xmlns="http://www.w3.org/2000/svg">
<path d="M13.902 0.614062C13.7098 0.239062 13.3208 0 12.8989 0C12.477 0 12.088 0.239062 11.8958 0.614062L8.44579 7.37344L0.950473 8.56406C0.533286 8.62969 0.186411 8.925 0.0551611 9.32812C-0.0760889 9.73125 0.0317237 10.1719 0.327036 10.4719L5.68954 15.8391L4.50829 23.3344C4.44266 23.7516 4.6161 24.1734 4.95829 24.4219C5.30047 24.6703 5.75047 24.7078 6.13016 24.5156L12.8989 21.075L19.663 24.5156C20.038 24.7078 20.4927 24.6703 20.8348 24.4219C21.177 24.1734 21.3505 23.7562 21.2848 23.3344L20.0989 15.8391L25.4614 10.4719C25.7614 10.1719 25.8645 9.73125 25.7333 9.32812C25.602 8.925 25.2598 8.62969 24.838 8.56406L17.3473 7.37344L13.902 0.614062Z" fill="#F0BC29"/>
</svg>
