<svg width="110" height="110" viewBox="0 0 110 110" fill="none" xmlns="http://www.w3.org/2000/svg">
<path d="M100.088 46.0645H8.91211L26.6025 33.6768H82.3979L100.088 46.0645Z" stroke="#262A71" stroke-width="3" stroke-linecap="round" stroke-linejoin="round"/>
<path d="M38 46.0645H13V89.0645H38V46.0645Z" stroke="#262A71" stroke-width="3" stroke-linecap="round" stroke-linejoin="round"/>
<path d="M32.9215 55.7744H27.8828V63.0765H32.9215V55.7744Z" stroke="#262A71" stroke-width="3" stroke-linecap="round" stroke-linejoin="round"/>
<path d="M32.9215 67.6299H27.8828V74.932H32.9215V67.6299Z" stroke="#262A71" stroke-width="3" stroke-linecap="round" stroke-linejoin="round"/>
<path d="M23.2555 55.7744H18.2168V63.0765H23.2555V55.7744Z" stroke="#262A71" stroke-width="3" stroke-linecap="round" stroke-linejoin="round"/>
<path d="M23.2555 67.6299H18.2168V74.932H23.2555V67.6299Z" stroke="#262A71" stroke-width="3" stroke-linecap="round" stroke-linejoin="round"/>
<path d="M96 46.0645H71V89.0645H96V46.0645Z" stroke="#262A71" stroke-width="3" stroke-linecap="round" stroke-linejoin="round"/>
<path d="M90.7848 55.7744H85.7461V63.0765H90.7848V55.7744Z" stroke="#262A71" stroke-width="3" stroke-linecap="round" stroke-linejoin="round"/>
<path d="M90.7848 67.6299H85.7461V74.932H90.7848V67.6299Z" stroke="#262A71" stroke-width="3" stroke-linecap="round" stroke-linejoin="round"/>
<path d="M81.1169 55.7744H76.0781V63.0765H81.1169V55.7744Z" stroke="#262A71" stroke-width="3" stroke-linecap="round" stroke-linejoin="round"/>
<path d="M81.1169 67.6299H76.0781V74.932H81.1169V67.6299Z" stroke="#262A71" stroke-width="3" stroke-linecap="round" stroke-linejoin="round"/>
<path d="M54.4967 30.3662L34.3418 46.0642H37.9549V94H71.0443V46.0642H74.6574L54.4967 30.3662Z" fill="white" stroke="#262A71" stroke-width="3" stroke-linecap="round" stroke-linejoin="round"/>
<path d="M57.672 78.6797H50.9941V93.7134H57.672V78.6797Z" stroke="#262A71" stroke-width="3" stroke-linecap="round" stroke-linejoin="round"/>
</svg>
