<svg width="110" height="110" viewBox="0 0 110 110" fill="none" xmlns="http://www.w3.org/2000/svg">
<path d="M89.3752 18.334H20.6252C19.3595 18.334 18.3335 19.36 18.3335 20.6257V93.959C18.3335 95.2246 19.3595 96.2507 20.6252 96.2507H89.3752C90.6408 96.2507 91.6668 95.2246 91.6668 93.959V20.6257C91.6668 19.36 90.6408 18.334 89.3752 18.334Z" stroke="#262A71" stroke-width="3" stroke-linecap="round" stroke-linejoin="round"/>
<path d="M18.3335 45.834H91.6668" stroke="#262A71" stroke-width="3" stroke-linecap="round" stroke-linejoin="round"/>
<path d="M18.3335 71.041H91.6668" stroke="#262A71" stroke-width="3" stroke-linecap="round" stroke-linejoin="round"/>
<path d="M42.3957 27.5H30.9373C30.3045 27.5 29.7915 28.013 29.7915 28.6458V37.8125C29.7915 38.4453 30.3045 38.9583 30.9373 38.9583H42.3957C43.0285 38.9583 43.5415 38.4453 43.5415 37.8125V28.6458C43.5415 28.013 43.0285 27.5 42.3957 27.5Z" stroke="#262A71" stroke-width="3" stroke-linecap="round" stroke-linejoin="round"/>
<path d="M79.0627 27.5H67.6043C66.9715 27.5 66.4585 28.013 66.4585 28.6458V37.8125C66.4585 38.4453 66.9715 38.9583 67.6043 38.9583H79.0627C79.6955 38.9583 80.2085 38.4453 80.2085 37.8125V28.6458C80.2085 28.013 79.6955 27.5 79.0627 27.5Z" stroke="#262A71" stroke-width="3" stroke-linecap="round" stroke-linejoin="round"/>
<path d="M42.3957 52.709H30.9373C30.3045 52.709 29.7915 53.222 29.7915 53.8548V63.0215C29.7915 63.6543 30.3045 64.1673 30.9373 64.1673H42.3957C43.0285 64.1673 43.5415 63.6543 43.5415 63.0215V53.8548C43.5415 53.222 43.0285 52.709 42.3957 52.709Z" stroke="#262A71" stroke-width="3" stroke-linecap="round" stroke-linejoin="round"/>
<path d="M79.0627 52.709H67.6043C66.9715 52.709 66.4585 53.222 66.4585 53.8548V63.0215C66.4585 63.6543 66.9715 64.1673 67.6043 64.1673H79.0627C79.6955 64.1673 80.2085 63.6543 80.2085 63.0215V53.8548C80.2085 53.222 79.6955 52.709 79.0627 52.709Z" stroke="#262A71" stroke-width="3" stroke-linecap="round" stroke-linejoin="round"/>
<path d="M65.3123 77.916H44.6873C44.0545 77.916 43.5415 78.429 43.5415 79.0618V95.1035C43.5415 95.7363 44.0545 96.2493 44.6873 96.2493H65.3123C65.9452 96.2493 66.4582 95.7363 66.4582 95.1035V79.0618C66.4582 78.429 65.9452 77.916 65.3123 77.916Z" stroke="#262A71" stroke-width="3" stroke-linecap="round" stroke-linejoin="round"/>
</svg>
