<svg width="112" height="110" viewBox="0 0 112 110" fill="none" xmlns="http://www.w3.org/2000/svg">
<g clip-path="url(#clip0_2106_2948)">
<path d="M37.8076 50.8652L20.7324 63.8382V89.7842H37.8076H54.8827V63.8382L37.8076 50.8652Z" stroke="#262A71" stroke-width="3" stroke-linecap="round" stroke-linejoin="round"/>
<path d="M104.356 63.8382H54.8818L37.8066 50.8652H87.2808L104.356 63.8382Z" stroke="#262A71" stroke-width="3" stroke-linecap="round" stroke-linejoin="round"/>
<path d="M104 64H55V90H104V64Z" stroke="#262A71" stroke-width="3" stroke-linecap="round" stroke-linejoin="round"/>
<path d="M28.0504 40.2699C28.0504 36.9618 26.0145 34.1207 23.1161 32.9055C22.4813 29.1131 19.1538 26.2158 15.1346 26.2158C11.1153 26.2158 7.78788 29.1131 7.15303 32.9055C4.25463 34.1207 2.21875 36.9618 2.21875 40.2699C2.21875 42.0818 2.83608 43.751 3.86497 45.0915C3.37461 46.125 3.0944 47.271 3.0944 48.4861C3.0944 52.9055 6.71959 56.4861 11.1942 56.4861C12.5383 56.4861 13.7992 56.1574 14.9157 55.5866C16.0321 56.1574 17.2931 56.4861 18.6372 56.4861C23.1117 56.4861 26.7369 52.9055 26.7369 48.4861C26.7369 47.405 26.518 46.3801 26.124 45.4418C27.3236 44.045 28.0504 42.2461 28.0504 40.2699Z" stroke="#262A71" stroke-width="3" stroke-linecap="round" stroke-linejoin="round"/>
<path d="M14.916 89.7841V46.1084" stroke="#262A71" stroke-width="3" stroke-linecap="round" stroke-linejoin="round"/>
<path d="M110 90H7" stroke="#262A71" stroke-width="3" stroke-linecap="round" stroke-linejoin="round"/>
<path d="M43.2796 72.7031H32.334V89.7842H43.2796V72.7031Z" stroke="#262A71" stroke-width="3" stroke-linecap="round" stroke-linejoin="round"/>
<path d="M95.694 73.1348H84.3105V77.8915H95.694V73.1348Z" stroke="#262A71" stroke-width="3" stroke-linecap="round" stroke-linejoin="round"/>
<path d="M75.3834 73.1348H64V77.8915H75.3834V73.1348Z" stroke="#262A71" stroke-width="3" stroke-linecap="round" stroke-linejoin="round"/>
</g>
<defs>
<clipPath id="clip0_2106_2948">
<rect width="110" height="110" fill="white"/>
</clipPath>
</defs>
</svg>
