<svg width="110" height="110" viewBox="0 0 110 110" fill="none" xmlns="http://www.w3.org/2000/svg">
<path d="M9 50L55 22L101 50" stroke="#262A71" stroke-width="3" stroke-linecap="round" stroke-linejoin="round"/>
<path d="M87.0833 50.416H22.9167C21.651 50.416 20.625 51.442 20.625 52.7077V93.9577C20.625 95.2233 21.651 96.2493 22.9167 96.2493H87.0833C88.349 96.2493 89.375 95.2233 89.375 93.9577V52.7077C89.375 51.442 88.349 50.416 87.0833 50.416Z" stroke="#262A71" stroke-width="3" stroke-linecap="round" stroke-linejoin="round"/>
<path d="M41.2143 61H31.7857C31.3518 61 31 61.3518 31 61.7857V71.2143C31 71.6482 31.3518 72 31.7857 72H41.2143C41.6482 72 42 71.6482 42 71.2143V61.7857C42 61.3518 41.6482 61 41.2143 61Z" stroke="#262A71" stroke-width="3" stroke-linecap="round" stroke-linejoin="round"/>
<path d="M79.2143 61H69.7857C69.3518 61 69 61.3518 69 61.7857V71.2143C69 71.6482 69.3518 72 69.7857 72H79.2143C79.6482 72 80 71.6482 80 71.2143V61.7857C80 61.3518 79.6482 61 79.2143 61Z" stroke="#262A71" stroke-width="3" stroke-linecap="round" stroke-linejoin="round"/>
</svg>
