<svg width="110" height="110" viewBox="0 0 110 110" fill="none" xmlns="http://www.w3.org/2000/svg">
<path d="M96.2502 41.25H13.7502C12.4845 41.25 11.4585 42.276 11.4585 43.5417V93.9583C11.4585 95.224 12.4845 96.25 13.7502 96.25H96.2502C97.5158 96.25 98.5418 95.224 98.5418 93.9583V43.5417C98.5418 42.276 97.5158 41.25 96.2502 41.25Z" stroke="#262A71" stroke-width="3" stroke-linecap="round" stroke-linejoin="round"/>
<path d="M11.4585 41.2493V29.791H98.5418V41.2493" stroke="#262A71" stroke-width="3" stroke-linecap="round" stroke-linejoin="round"/>
<path d="M6.875 41.25H103.125" stroke="#262A71" stroke-width="3" stroke-linecap="round" stroke-linejoin="round"/>
<path d="M58.1 50H23.9C23.4029 50 23 50.4104 23 50.9167V71.0833C23 71.5896 23.4029 72 23.9 72H58.1C58.5971 72 59 71.5896 59 71.0833V50.9167C59 50.4104 58.5971 50 58.1 50Z" stroke="#262A71" stroke-width="3" stroke-linecap="round" stroke-linejoin="round"/>
<path d="M73.3335 96.2493V68.7493C73.3335 65.6938 76.3891 64.166 82.5002 64.166C88.6113 64.166 91.6668 65.6938 91.6668 68.7493V96.2493" stroke="#262A71" stroke-width="3" stroke-linecap="round" stroke-linejoin="round"/>
<path d="M87.0832 84.7923C88.3488 84.7923 89.3748 83.7663 89.3748 82.5007C89.3748 81.235 88.3488 80.209 87.0832 80.209C85.8175 80.209 84.7915 81.235 84.7915 82.5007C84.7915 83.7663 85.8175 84.7923 87.0832 84.7923Z" fill="#262A71"/>
</svg>
